<svg width="18" height="18" viewBox="0 0 18 18" fill="none" xmlns="http://www.w3.org/2000/svg">
  <g id="vuesax/bold/bag-happy">
    <g id="bag-happy">
      <path id="Vector"
            d="M14.43 4.185H14.13L11.595 1.65C11.3925 1.4475 11.0625 1.4475 10.8525 1.65C10.65 1.8525 10.65 2.1825 10.8525 2.3925L12.645 4.185H5.355L7.1475 2.3925C7.35 2.19 7.35 1.86 7.1475 1.65C6.945 1.4475 6.615 1.4475 6.405 1.65L3.8775 4.185H3.5775C2.9025 4.185 1.5 4.185 1.5 6.105C1.5 6.8325 1.65 7.3125 1.965 7.6275C2.145 7.815 2.3625 7.9125 2.595 7.965C2.8125 8.0175 3.045 8.025 3.27 8.025H14.73C14.9625 8.025 15.18 8.01 15.39 7.965C16.02 7.815 16.5 7.365 16.5 6.105C16.5 4.185 15.0975 4.185 14.43 4.185Z"
            fill="#ACACAC"/>
      <path id="Vector_2"
            d="M14.288 9H3.65298C3.18798 9 2.83548 9.4125 2.91048 9.87L3.54048 13.725C3.75048 15.015 4.31298 16.5 6.81048 16.5H11.018C13.5455 16.5 13.9955 15.2325 14.2655 13.815L15.023 9.8925C15.113 9.4275 14.7605 9 14.288 9ZM9.00048 14.625C7.24548 14.625 5.81298 13.1925 5.81298 11.4375C5.81298 11.13 6.06798 10.875 6.37548 10.875C6.68298 10.875 6.93798 11.13 6.93798 11.4375C6.93798 12.5775 7.86048 13.5 9.00048 13.5C10.1405 13.5 11.063 12.5775 11.063 11.4375C11.063 11.13 11.318 10.875 11.6255 10.875C11.933 10.875 12.188 11.13 12.188 11.4375C12.188 13.1925 10.7555 14.625 9.00048 14.625Z"
            fill="#ACACAC"/>
    </g>
  </g>
</svg>
