<svg width="76" height="56" viewBox="0 0 76 56" fill="none" xmlns="http://www.w3.org/2000/svg">
  <g id="Group">
    <path id="Vector" fill-rule="evenodd" clip-rule="evenodd" d="M0.666748 0H75.3334V56H0.666748V0Z" fill="#229E45"/>
    <path id="Vector_2" fill-rule="evenodd" clip-rule="evenodd"
          d="M38.1635 50.8667L73.3385 28.035L37.9535 5.13333L2.66187 28.0817L38.1635 50.8667Z" fill="#F8E509"/>
    <path id="Vector_3" fill-rule="evenodd" clip-rule="evenodd"
          d="M53.4935 28C53.4935 36.2017 46.8318 42.8517 38.6068 42.8517C35.6677 42.847 32.7958 41.9711 30.3544 40.3346C27.9129 38.6981 26.0115 36.3744 24.8905 33.6574C23.7694 30.9404 23.4791 27.952 24.0562 25.0701C24.6332 22.1881 26.0518 19.5419 28.1326 17.466C30.2134 15.3901 32.8629 13.9778 35.7462 13.4075C38.6296 12.8372 41.6172 13.1346 44.3316 14.262C47.0459 15.3894 49.3651 17.2963 50.9959 19.7416C52.6266 22.1869 53.4958 25.0608 53.4935 28Z"
          fill="#2B49A3"/>
    <path id="Vector_4" fill-rule="evenodd" clip-rule="evenodd"
          d="M33.7184 36.9017L33.2518 36.6333L32.7851 36.8667L32.8901 36.3417L32.5168 35.945L33.0418 35.8867L33.2984 35.42L33.5201 35.91L34.0334 36.0033L33.6484 36.3533M43.6818 39.4217L43.2268 39.1533L42.7601 39.3867L42.8534 38.8617L42.4918 38.4767L43.0168 38.4183L43.2618 37.94L43.4951 38.43L44.0084 38.5233L43.6118 38.885M39.3884 35.385L38.9918 35.1517L38.5834 35.3617L38.6768 34.9067L38.3501 34.5683L38.8168 34.5217L39.0268 34.1017L39.2134 34.5333L39.6684 34.615L39.3184 34.93M49.4684 33.9383L49.0718 33.705L48.6634 33.915L48.7568 33.46L48.4418 33.1333L48.8968 33.0867L49.1068 32.6783L49.2934 33.0983L49.7368 33.18L49.3984 33.4833M39.2134 30.9167L38.7468 30.66L38.2801 30.8933L38.3734 30.3567L38.0118 29.9717L38.5368 29.9133L38.7818 29.435L39.0151 29.925L39.5284 30.0183L39.1318 30.3917M26.9284 26.3083L26.4618 26.0517L25.9951 26.285L26.1118 25.7483L25.7268 25.3633L26.2634 25.305L26.4968 24.8267L26.7301 25.3167L27.2434 25.41L26.8584 25.7717M28.4101 32.445L27.9434 32.1767L27.4768 32.41L27.5818 31.885L27.2084 31.5L27.7334 31.43L27.9784 30.9633L28.2118 31.4533L28.7251 31.5467L28.3401 31.9083M43.7401 24.0567L43.3201 23.8233L42.9001 24.0333L42.9934 23.5667L42.6668 23.2167L43.1334 23.1583L43.3551 22.7383L43.5534 23.1817L44.0201 23.2633L43.6701 23.5783M42.8884 28.0467L42.5734 27.86L42.2351 28.0233L42.3051 27.65L42.0484 27.3817L42.4218 27.335L42.5968 27.0083L42.7484 27.3583L43.0984 27.4167L42.8418 27.6733M26.2518 33.5533L25.9368 33.3783L25.6218 33.53L25.6918 33.18L25.4468 32.9233L25.7968 32.8767L25.9601 32.5617L26.1118 32.8883L26.4618 32.9583L26.1934 33.1917M49.5501 34.9767L49.2934 34.8483L49.0368 34.965L49.0951 34.6967L48.8968 34.51L49.1768 34.475L49.3168 34.2417L49.4334 34.475L49.7251 34.5333L49.5034 34.7083"
          fill="#FFFFEF"/>
    <path id="Vector_5" fill-rule="evenodd" clip-rule="evenodd"
          d="M26.2518 33.5533L25.9368 33.3783L25.6218 33.53L25.6918 33.18L25.4468 32.9233L25.7968 32.8767L25.9601 32.5617L26.1118 32.8883L26.4618 32.9583L26.1934 33.1917"
          fill="#FFFFEF"/>
    <path id="Vector_6" fill-rule="evenodd" clip-rule="evenodd"
          d="M26.2518 33.5533L25.9368 33.3783L25.6218 33.53L25.6918 33.18L25.4468 32.9233L25.7968 32.8767L25.9601 32.5617L26.1118 32.8883L26.4618 32.9583L26.1934 33.1917M31.1284 33.5417L30.8251 33.3783L30.5101 33.53L30.5801 33.18L30.3351 32.9233L30.6851 32.8767L30.8484 32.5617L31.0001 32.8883L31.3501 32.9467L31.0818 33.1917M30.5218 35.175L30.2184 35L29.9034 35.1633L29.9734 34.8133L29.7284 34.545L30.0784 34.4983L30.2418 34.1833L30.3934 34.51L30.7434 34.58L30.4751 34.8133M40.6718 32.2233L40.3684 32.0367L40.0418 32.2L40.1118 31.85L39.8784 31.5817L40.2284 31.5467L40.3918 31.2317L40.5318 31.5583L40.8818 31.6167L40.6251 31.8617M37.6968 32.2117L37.3818 32.0367L37.0668 32.2L37.1368 31.85L36.9034 31.5817L37.2534 31.5467L37.4168 31.22L37.5568 31.5583L37.9068 31.6167L37.6501 31.8617M29.6234 31.185L29.4251 31.0683L29.2268 31.1617L29.2734 30.94L29.1218 30.7767L29.3434 30.7533L29.4368 30.555L29.5301 30.765L29.7518 30.8L29.5884 30.9517M49.1651 36.2483L48.8618 36.0733L48.5468 36.2367L48.6168 35.8867L48.3718 35.6183L48.7218 35.5717L48.8851 35.2567L49.0368 35.5833L49.3868 35.6533L49.1184 35.8867M46.6918 36.5867L46.4351 36.4233L46.1668 36.5633L46.2251 36.26L46.0268 36.05L46.3184 36.015L46.4584 35.7467L46.5751 36.0267L46.8668 36.0733L46.6451 36.2833M47.8584 36.5517L47.6251 36.4117L47.3801 36.5283L47.4268 36.26L47.2401 36.0617L47.5084 36.0267L47.6368 35.7933L47.7534 36.0267L48.0218 36.085L47.8234 36.2717M51.2184 33.6117L50.9851 33.495L50.7518 33.6117L50.8101 33.3433L50.6234 33.145L50.8918 33.11L51.0084 32.8767L51.1251 33.1217L51.3701 33.1683L51.1834 33.355M46.6568 38.2317L46.3651 38.0683L46.0501 38.2083L46.1201 37.8817L45.8868 37.6483L46.2368 37.6133L46.3884 37.3217L46.5284 37.625L46.8784 37.6833L46.6101 37.905M46.6801 39.5617L46.4001 39.3983L46.1201 39.55L46.1901 39.2233L45.9684 38.99L46.2834 38.9433L46.4234 38.6517L46.5518 38.955L46.8668 39.0133L46.6334 39.2467M44.4168 36.5517L44.1951 36.4117L43.9618 36.5283L44.0084 36.2717L43.8334 36.0733L44.0901 36.05L44.2068 35.8167L44.3234 36.05L44.5801 36.0967L44.3934 36.2833M42.3168 36.5517L42.0834 36.4117L41.8501 36.5283L41.9084 36.2717L41.7218 36.0733L41.9901 36.05L42.1068 35.8167L42.2234 36.05L42.4684 36.0967L42.2818 36.2833M38.7351 33.4133L38.5018 33.285L38.2684 33.4017L38.3268 33.1333L38.1401 32.9467L38.3968 32.9117L38.5134 32.6783L38.6301 32.9117L38.8868 32.97L38.7001 33.145M39.1318 39.795L38.9451 39.69L38.7351 39.795L38.7818 39.5617L38.6301 39.3983L38.8518 39.375L38.9568 39.1767L39.0501 39.3867L39.2718 39.4217L39.1084 39.5733M33.7184 29.47L33.2518 29.2017L32.7851 29.435L32.8901 28.91L32.5168 28.525L33.0418 28.455L33.2984 27.9883L33.5201 28.4783L34.0334 28.5717L33.6484 28.9333"
          fill="#FFFFEF"/>
    <path id="Vector_7" fill-rule="evenodd" clip-rule="evenodd"
          d="M52.5134 33.3433C52.8025 32.5933 53.0288 31.8207 53.1901 31.0333C45.2801 24.0917 36.4718 20.5333 25.3418 21.2683C24.9381 22.0494 24.6062 22.8655 24.3501 23.7067C37.5334 22.4467 47.2168 28.28 52.5134 33.3433Z"
          fill="white"/>
    <path id="Vector_8"
          d="M48.9669 29.4467L49.2352 29.5983C49.1951 29.6776 49.1828 29.7679 49.2002 29.855C49.2275 29.9394 49.2859 30.0103 49.3635 30.0533C49.4452 30.1117 49.5269 30.1467 49.5969 30.135C49.6669 30.135 49.7135 30.1 49.7485 30.0533C49.7689 30.0224 49.7772 29.985 49.7719 29.9483C49.7623 29.9053 49.7423 29.8652 49.7135 29.8317C49.6902 29.7967 49.6319 29.715 49.5385 29.6217C49.4426 29.5227 49.3708 29.4029 49.3285 29.2717C49.2994 29.1724 49.307 29.0659 49.3498 28.9716C49.3926 28.8774 49.4679 28.8017 49.5619 28.7583C49.6467 28.7229 49.7405 28.7148 49.8302 28.735C49.9399 28.7603 50.0432 28.8079 50.1335 28.875C50.2969 28.9917 50.4019 29.1083 50.4369 29.2483C50.453 29.3138 50.4551 29.382 50.443 29.4483C50.431 29.5147 50.405 29.5777 50.3669 29.6333L50.0869 29.4583C50.1219 29.3883 50.1335 29.3183 50.1102 29.26C50.0985 29.2017 50.0519 29.1433 49.9702 29.0967C49.9103 29.0485 49.8369 29.02 49.7602 29.015C49.7391 29.0143 49.7181 29.0194 49.6996 29.0296C49.6811 29.0399 49.6658 29.055 49.6552 29.0733C49.6319 29.1083 49.6319 29.1433 49.6435 29.19C49.6552 29.2367 49.7135 29.33 49.8302 29.4467C49.9469 29.5633 50.0169 29.6683 50.0635 29.7383C50.1052 29.8148 50.124 29.9016 50.1178 29.9885C50.1116 30.0753 50.0806 30.1586 50.0285 30.2283C49.9739 30.3077 49.8967 30.3687 49.8069 30.4033C49.7194 30.4436 49.6216 30.4559 49.5269 30.4383C49.4219 30.415 49.3169 30.3683 49.2002 30.2867C49.0252 30.17 48.9202 30.0417 48.8852 29.9017C48.8472 29.7429 48.8723 29.5756 48.9552 29.435L48.9669 29.4467ZM47.6135 28.56L47.9052 28.7117C47.8691 28.7923 47.8609 28.8826 47.8819 28.9683C47.9117 29.0484 47.9698 29.1148 48.0452 29.155C48.1385 29.2133 48.2085 29.2367 48.2785 29.225C48.3485 29.225 48.3952 29.19 48.4302 29.1317C48.4479 29.1039 48.4561 29.0712 48.4535 29.0383C48.4535 29.0033 48.4302 28.9567 48.3952 28.9217C48.3354 28.8495 48.2732 28.7795 48.2085 28.7117C48.0802 28.5833 47.9985 28.4783 47.9752 28.385C47.9561 28.325 47.9504 28.2615 47.9585 28.199C47.9665 28.1365 47.9882 28.0766 48.0219 28.0233C48.0662 27.9513 48.1313 27.8944 48.2085 27.86C48.2887 27.8231 48.3781 27.8109 48.4652 27.825C48.5731 27.8432 48.6763 27.8829 48.7685 27.9417C48.9435 28.0583 49.0485 28.175 49.0835 28.3033C49.1048 28.3689 49.1116 28.4383 49.1036 28.5068C49.0955 28.5752 49.0728 28.6412 49.0369 28.7L48.7452 28.5367C48.7802 28.455 48.7919 28.3967 48.7685 28.3383C48.7452 28.28 48.6985 28.2217 48.6169 28.175C48.5523 28.1287 48.4747 28.1042 48.3952 28.105C48.376 28.1063 48.3575 28.1123 48.3412 28.1225C48.3249 28.1327 48.3114 28.1467 48.3019 28.1633C48.2785 28.1983 48.2785 28.2333 48.2902 28.28C48.3019 28.3267 48.3719 28.42 48.4885 28.5367C48.6052 28.6533 48.6869 28.7467 48.7219 28.8167C48.7686 28.8898 48.7935 28.9749 48.7935 29.0617C48.7935 29.1485 48.7686 29.2335 48.7219 29.3067C48.6716 29.3881 48.5986 29.453 48.5119 29.4933C48.4244 29.5336 48.3266 29.5459 48.2319 29.5283C48.1118 29.508 47.9969 29.4645 47.8935 29.4C47.7427 29.3196 47.6265 29.1868 47.5669 29.0267C47.5218 28.8709 47.5385 28.7038 47.6135 28.56ZM45.9569 28.1167L46.8085 26.7167L47.8352 27.3583L47.6952 27.5917L46.9485 27.125L46.7619 27.44L47.4619 27.8717L47.3102 28.105L46.6102 27.6733L46.3769 28.0583L47.1585 28.525L47.0185 28.7583L45.9685 28.1167H45.9569ZM43.5419 26.1333L43.6702 25.9L44.3002 26.215L44.0085 26.7983C43.9152 26.8217 43.7985 26.8333 43.6585 26.8217C43.5241 26.8069 43.3936 26.7673 43.2735 26.705C43.1324 26.6362 43.0117 26.5316 42.9235 26.4017C42.8433 26.2809 42.8025 26.1383 42.8069 25.9933C42.8128 25.8425 42.8527 25.695 42.9235 25.5617C42.9936 25.4214 43.098 25.301 43.2269 25.2117C43.3502 25.1264 43.497 25.0816 43.6469 25.0833C43.7635 25.0833 43.8802 25.1183 44.0202 25.2C44.2069 25.2817 44.3235 25.3983 44.3819 25.5267C44.4425 25.6541 44.455 25.7991 44.4169 25.935L44.1019 25.8417C44.1212 25.7635 44.1129 25.6811 44.0785 25.6083C44.0435 25.5383 43.9852 25.4917 43.8919 25.445C43.8375 25.414 43.7771 25.3948 43.7148 25.3888C43.6524 25.3827 43.5895 25.39 43.5302 25.41C43.4135 25.445 43.3085 25.55 43.2269 25.7133C43.1452 25.8767 43.1102 26.0283 43.1452 26.1567C43.1613 26.2175 43.1906 26.2741 43.2309 26.3225C43.2712 26.3709 43.3216 26.4098 43.3785 26.4367C43.4369 26.4717 43.5069 26.495 43.5769 26.495C43.6465 26.5056 43.7173 26.5056 43.7869 26.495L43.8802 26.3083L43.5419 26.1333ZM33.0185 23.5317L33.2519 21.8983L33.7419 21.98L33.8702 23.1233L34.3252 22.0733L34.8152 22.1433L34.5819 23.7533L34.2669 23.7067L34.4652 22.435L33.9519 23.66L33.6369 23.6133L33.5085 22.295L33.3219 23.5783L33.0185 23.5317ZM31.3735 23.3333L31.5252 21.7L32.7269 21.8167L32.7035 22.0967L31.8285 22.015L31.7935 22.365L32.6102 22.4467L32.5752 22.7267L31.7585 22.645L31.7235 23.0883L32.6335 23.17L32.6102 23.45L31.3735 23.3333Z"
          fill="#309E3A"/>
    <g id="Group_2">
      <path id="Vector_9"
            d="M25.9251 22.3183C25.9251 22.1433 25.9601 22.015 26.0068 21.8983C26.0477 21.8154 26.103 21.7403 26.1701 21.6767C26.23 21.6163 26.3014 21.5687 26.3801 21.5367C26.4968 21.5017 26.6135 21.4783 26.7301 21.4783C26.9751 21.4783 27.1618 21.5717 27.3135 21.7117C27.3857 21.8009 27.4394 21.9035 27.4714 22.0137C27.5035 22.1239 27.5132 22.2393 27.5001 22.3533C27.5001 22.61 27.4185 22.82 27.2668 22.9717C27.1889 23.0437 27.0967 23.0986 26.9962 23.1327C26.8957 23.1669 26.7892 23.1796 26.6835 23.17C26.5792 23.1711 26.4758 23.1509 26.3795 23.1108C26.2833 23.0707 26.1962 23.0115 26.1235 22.9367C25.9783 22.7648 25.907 22.5425 25.9251 22.3183Z"
            fill="#309E3A"/>
      <path id="Vector_10"
            d="M26.2634 22.3183C26.2634 22.4933 26.2984 22.6333 26.3801 22.7383C26.4618 22.8317 26.5668 22.89 26.7068 22.89C26.7673 22.8942 26.8281 22.8849 26.8846 22.8627C26.9411 22.8405 26.9919 22.806 27.0334 22.7617C27.1151 22.6683 27.1501 22.5283 27.1618 22.33C27.1618 22.1433 27.1384 22.0033 27.0451 21.91C27.0071 21.863 26.9591 21.825 26.9046 21.7987C26.8502 21.7725 26.7906 21.7587 26.7301 21.7583C26.6687 21.7564 26.6077 21.7679 26.5512 21.7921C26.4948 21.8163 26.4443 21.8525 26.4034 21.8983C26.3101 21.9917 26.2751 22.1317 26.2634 22.3183Z"
            fill="#F7FFFF"/>
    </g>
    <g id="Group_3">
      <path id="Vector_11"
            d="M27.8501 23.1583L27.8734 21.525H28.5734C28.7484 21.525 28.8651 21.5483 28.9468 21.5833C29.0284 21.6067 29.0868 21.665 29.1334 21.735C29.1801 21.805 29.2034 21.8983 29.2034 22.0033C29.2043 22.1156 29.1626 22.224 29.0868 22.3067C29.0005 22.3874 28.8895 22.4368 28.7718 22.4467L28.9468 22.5867C28.9934 22.6333 29.0518 22.7267 29.1218 22.855L29.3201 23.1817H28.9234L28.6901 22.8083L28.5268 22.575C28.4985 22.5429 28.4623 22.5188 28.4218 22.505C28.3687 22.4895 28.3137 22.4817 28.2584 22.4817H28.1884V23.1583H27.8501Z"
            fill="#309E3A"/>
      <path id="Vector_12"
            d="M28.2002 22.225H28.4335C28.5969 22.225 28.7019 22.225 28.7369 22.2017C28.7719 22.2017 28.8069 22.1667 28.8302 22.1433C28.8535 22.12 28.8652 22.0617 28.8652 22.0267C28.8652 21.9567 28.8535 21.91 28.8185 21.8867C28.7952 21.8517 28.7485 21.8283 28.7019 21.8167H28.4685L28.2002 21.805V22.2133V22.225Z"
            fill="white"/>
    </g>
    <g id="Group_4">
      <path id="Vector_13"
            d="M29.7167 21.6067L30.3233 21.6417C30.4517 21.6417 30.5567 21.6533 30.6267 21.6767C30.7175 21.7096 30.798 21.7659 30.86 21.84C30.9272 21.9216 30.9751 22.0173 31 22.12C31.035 22.225 31.0467 22.3533 31.035 22.505C31.0349 22.6241 31.0152 22.7423 30.9767 22.855C30.93 22.9717 30.86 23.065 30.7783 23.135C30.7104 23.191 30.6306 23.2309 30.545 23.2517C30.475 23.275 30.37 23.275 30.2533 23.275L29.635 23.24L29.7167 21.6067Z"
            fill="#309E3A"/>
      <path id="Vector_14"
            d="M30.0317 21.8983L29.9734 22.9833H30.4167C30.4751 22.9833 30.5217 22.96 30.5567 22.925C30.5917 22.89 30.6267 22.8433 30.6501 22.7733C30.6734 22.7033 30.6967 22.5983 30.6967 22.47L30.6851 22.1783C30.6684 22.1168 30.6363 22.0606 30.5917 22.015C30.553 21.976 30.5047 21.9479 30.4517 21.9333C30.3635 21.9137 30.2737 21.902 30.1834 21.8983H30.0317Z"
            fill="white"/>
    </g>
    <g id="Group_5">
      <path id="Vector_15"
            d="M37.72 24.5233L38.105 22.9367L38.6183 23.0533L38.9916 23.17C39.0733 23.2167 39.1433 23.2867 39.1783 23.3917C39.225 23.485 39.225 23.59 39.2016 23.7183C39.1783 23.8117 39.1433 23.8933 39.085 23.9517C39.0422 24.0029 38.9887 24.0441 38.9282 24.0723C38.8677 24.1005 38.8017 24.1151 38.735 24.115C38.6533 24.115 38.5366 24.0917 38.385 24.0567L38.1866 23.9983L38.0466 24.605L37.72 24.5233Z"
            fill="#309E3A"/>
      <path id="Vector_16"
            d="M38.3499 23.2867L38.2566 23.73L38.4316 23.7767C38.5483 23.8 38.6416 23.8233 38.6883 23.8117C38.7336 23.8054 38.776 23.7852 38.8094 23.7538C38.8428 23.7225 38.8657 23.6816 38.8749 23.6367C38.8749 23.5783 38.8749 23.5317 38.8516 23.485C38.826 23.4376 38.7848 23.4005 38.7349 23.38L38.5133 23.3217L38.3616 23.2867H38.3499Z"
            fill="white"/>
    </g>
    <g id="Group_6">
      <path id="Vector_17"
            d="M39.2368 24.9783L39.7851 23.4383L40.4268 23.6717C40.6018 23.73 40.7068 23.7883 40.7768 23.835C40.8351 23.8933 40.8818 23.9517 40.8935 24.045C40.9051 24.1383 40.9168 24.22 40.8935 24.3133C40.8468 24.43 40.7768 24.5117 40.6835 24.57C40.5901 24.6167 40.4735 24.6283 40.3335 24.605C40.3801 24.6633 40.4268 24.7217 40.4501 24.7917L40.5435 25.1067L40.6135 25.4683L40.2518 25.34L40.1351 24.92C40.1139 24.825 40.0867 24.7315 40.0535 24.64C40.038 24.6037 40.014 24.5717 39.9835 24.5467C39.9601 24.5117 39.9135 24.4883 39.8318 24.465L39.7735 24.4417L39.5402 25.095L39.2368 24.9783Z"
            fill="#309E3A"/>
      <path id="Vector_18"
            d="M39.8669 24.1966L40.0886 24.2783C40.2402 24.3366 40.3336 24.36 40.3802 24.36C40.4152 24.36 40.4502 24.36 40.4852 24.325C40.5202 24.3016 40.5436 24.2666 40.5552 24.22C40.5786 24.1733 40.5786 24.1266 40.5552 24.08C40.538 24.0348 40.5048 23.9974 40.4619 23.975L40.2286 23.8933L39.9952 23.8116L39.8552 24.1966H39.8669Z"
            fill="white"/>
    </g>
    <g id="Group_7">
      <path id="Vector_19"
            d="M41.15 24.92C41.1901 24.7834 41.2576 24.6564 41.3483 24.5467C41.4073 24.4763 41.4785 24.417 41.5583 24.3717C41.6307 24.3308 41.7097 24.3032 41.7917 24.29C41.9083 24.29 42.025 24.29 42.1533 24.3367C42.2576 24.3625 42.3552 24.4101 42.4397 24.4765C42.5242 24.5429 42.5936 24.6265 42.6433 24.7217C42.7367 24.9083 42.7367 25.13 42.6667 25.3867C42.6089 25.6072 42.4663 25.7959 42.27 25.9117C42.095 26.0167 41.885 26.0283 41.6633 25.9583C41.5593 25.9319 41.462 25.8839 41.3777 25.8176C41.2933 25.7513 41.2237 25.6681 41.1733 25.5733C41.1266 25.4713 41.1005 25.3611 41.0965 25.249C41.0925 25.1369 41.1107 25.0251 41.15 24.92Z"
            fill="#309E3A"/>
      <path id="Vector_20"
            d="M41.4768 25.0134C41.4301 25.1884 41.4184 25.34 41.4768 25.4567C41.5351 25.5734 41.6168 25.6434 41.7451 25.69C41.8618 25.725 41.9784 25.7134 42.0951 25.6434C42.2118 25.585 42.2818 25.4567 42.3401 25.27C42.3984 25.095 42.3984 24.955 42.3401 24.8384C42.3171 24.783 42.2821 24.7334 42.2378 24.6931C42.1934 24.6528 42.1407 24.6227 42.0834 24.605C42.026 24.5852 41.965 24.5781 41.9046 24.5841C41.8442 24.5902 41.7858 24.6092 41.7334 24.64C41.6168 24.71 41.5351 24.8267 41.4768 25.0134Z"
            fill="white"/>
    </g>
    <g id="Group_8">
      <path id="Vector_21"
            d="M44.335 27.195L45.0816 25.7483L45.7 26.0633C45.8165 26.1192 45.923 26.1942 46.015 26.285C46.0733 26.3433 46.1083 26.4133 46.1083 26.5067C46.1083 26.6 46.1083 26.6817 46.0616 26.7633C46.0168 26.8682 45.9332 26.9518 45.8283 26.9967C45.7116 27.02 45.595 27.02 45.4666 26.9733C45.5133 27.0433 45.5366 27.1133 45.56 27.1717C45.5833 27.2417 45.595 27.3467 45.6066 27.4983L45.63 27.8717L45.28 27.6967L45.2333 27.265C45.2278 27.1671 45.2161 27.0697 45.1983 26.9733C45.1903 26.9297 45.1701 26.8892 45.14 26.8567L45 26.775L44.9416 26.74L44.6266 27.3467L44.335 27.195Z"
            fill="#309E3A"/>
      <path id="Vector_22"
            d="M45.0583 26.5067L45.28 26.6233C45.42 26.6933 45.5134 26.74 45.5484 26.74C45.5834 26.74 45.63 26.74 45.665 26.7167C45.7 26.705 45.7233 26.67 45.7467 26.6233C45.77 26.5767 45.7817 26.53 45.77 26.4833C45.7556 26.4369 45.7271 26.3961 45.6883 26.3667C45.6201 26.3248 45.55 26.2858 45.4784 26.25L45.245 26.1333L45.0583 26.5067Z"
            fill="white"/>
    </g>
    <g id="Group_9">
      <path id="Vector_23"
            d="M50.3783 30.1817C50.4538 30.0617 50.5531 29.9585 50.67 29.8783C50.7485 29.8281 50.8355 29.7925 50.9267 29.7733C51.0113 29.7561 51.0986 29.7561 51.1833 29.7733C51.3 29.7967 51.405 29.8433 51.51 29.9133C51.6008 29.9699 51.6788 30.0448 51.7391 30.1331C51.7993 30.2215 51.8405 30.3215 51.86 30.4267C51.895 30.625 51.8367 30.8467 51.6967 31.0683C51.5796 31.2611 51.3907 31.3996 51.1717 31.4533C51.0672 31.4759 50.9592 31.4761 50.8546 31.454C50.7501 31.4319 50.6514 31.3879 50.565 31.325C50.4742 31.2684 50.3962 31.1936 50.3359 31.1052C50.2757 31.0168 50.2345 30.9169 50.215 30.8117C50.18 30.6017 50.2383 30.3917 50.3783 30.1817Z"
            fill="#309E3A"/>
      <path id="Vector_24"
            d="M50.6701 30.3683C50.5534 30.52 50.5184 30.66 50.5417 30.7883C50.5503 30.8474 50.5714 30.904 50.6036 30.9543C50.6358 31.0046 50.6783 31.0475 50.7284 31.08C50.8451 31.1617 50.9617 31.185 51.0784 31.15C51.1951 31.115 51.3117 31.0333 51.4167 30.87C51.5217 30.7067 51.5684 30.5667 51.5451 30.45C51.5334 30.3333 51.4634 30.2283 51.3584 30.1467C51.2534 30.065 51.1251 30.0533 51.0084 30.0883C50.8917 30.1117 50.7751 30.205 50.6584 30.3683H50.6701Z"
            fill="white"/>
    </g>
    <path id="Vector_25"
          d="M35.8767 23.8583L36.145 22.715L36.985 22.9133L36.95 23.1L36.3317 22.96L36.2734 23.2167L36.845 23.345L36.7984 23.5433L36.2267 23.4033L36.1567 23.7183L36.7984 23.87L36.7517 24.0567L35.8767 23.8583Z"
          fill="#309E3A"/>
  </g>
</svg>
