<svg width="56" height="56" viewBox="0 0 56 56" fill="none" xmlns="http://www.w3.org/2000/svg">
  <g id="Frame">
    <path id="Vector"
          d="M41.1031 14.1124L40.5431 16.4644C39.8711 19.2644 37.5191 21.1684 34.7191 21.1684H31.5831V24.7524C31.5831 25.4244 31.0231 25.9844 30.3511 25.9844H25.5351C24.8631 25.9844 24.3031 25.4244 24.3031 24.7524V21.1684H21.2791C18.4791 21.1684 16.0151 19.2644 15.4551 16.4644L14.8951 14.1124H7.50314V48.0484H19.2631V32.2564C19.2631 31.5844 19.8231 31.0244 20.4951 31.0244H35.6151C36.2871 31.0244 36.8471 31.5844 36.8471 32.2564V34.0484H38.6391C40.5431 34.0484 42.1111 35.6164 42.1111 37.5204V41.6644C42.1111 43.5684 40.5431 45.1364 38.6391 45.1364H36.8471V48.1604H49.5031V14.1124H41.1031ZM21.7271 33.3764V48.0484H34.3831V33.3764H21.7271ZM38.5271 36.4004H36.7351V42.5604H38.5271C39.0871 42.5604 39.5351 42.1124 39.5351 41.5524V37.4084C39.5351 36.8484 39.0871 36.4004 38.5271 36.4004ZM3.47114 50.5124C4.70314 53.0884 7.61514 54.7684 10.8631 54.7684H46.4791C49.7271 54.7684 52.7511 53.0884 53.8711 50.5124H3.47114ZM17.3591 14.1124L17.8071 15.9044C18.1431 17.5844 19.5991 18.7044 21.2791 18.7044H34.7191C36.3991 18.7044 37.8551 17.5844 38.1911 15.9044L38.6391 14.1124H17.3591ZM26.7671 21.1684V23.5204H29.1191V21.1684H26.7671ZM50.1751 1.23242H5.82314C3.24714 1.23242 1.11914 3.36042 1.11914 5.93642V11.6484H5.93514C6.04714 11.6484 6.15914 11.5364 6.27114 11.5364C6.38314 11.5364 6.49514 11.5364 6.60714 11.6484H50.3991C50.5111 11.6484 50.6231 11.5364 50.7351 11.5364C50.8471 11.5364 50.9591 11.5364 51.0711 11.6484H54.8791V5.93642C54.8791 3.36042 52.7511 1.23242 50.1751 1.23242ZM20.9431 7.61642H6.83114C6.15914 7.61642 5.59914 7.16842 5.59914 6.49642C5.59914 5.82442 6.15914 5.26442 6.83114 5.26442H20.9431C21.6151 5.26442 22.1751 5.82442 22.1751 6.49642C22.1751 7.16842 21.6151 7.61642 20.9431 7.61642ZM33.5991 7.61642C33.5991 8.28842 33.0391 8.84842 32.3671 8.84842C31.6951 8.84842 31.1351 8.28842 31.1351 7.61642V5.26442C31.1351 4.59242 31.6951 4.03242 32.3671 4.03242C33.0391 4.03242 33.5991 4.59242 33.5991 5.26442V7.61642ZM39.1991 7.61642C39.1991 8.28842 38.6391 8.84842 37.9671 8.84842C37.2951 8.84842 36.7351 8.28842 36.7351 7.61642V5.26442C36.7351 4.59242 37.2951 4.03242 37.9671 4.03242C38.6391 4.03242 39.1991 4.59242 39.1991 5.26442V7.61642ZM44.7991 7.61642C44.7991 8.28842 44.2391 8.84842 43.5671 8.84842C42.8951 8.84842 42.3351 8.28842 42.3351 7.61642V5.26442C42.3351 4.59242 42.8951 4.03242 43.5671 4.03242C44.2391 4.03242 44.7991 4.59242 44.7991 5.26442V7.61642ZM50.3991 7.61642C50.3991 8.28842 49.8391 8.84842 49.1671 8.84842C48.4951 8.84842 47.9351 8.28842 47.9351 7.61642V5.26442C47.9351 4.59242 48.4951 4.03242 49.1671 4.03242C49.8391 4.03242 50.3991 4.59242 50.3991 5.26442V7.61642Z"
          fill="url(#paint0_linear_1_1586)"/>
  </g>
  <defs>
    <linearGradient id="paint0_linear_1_1586" x1="27.9991" y1="1.23242" x2="27.9991" y2="54.7684"
                    gradientUnits="userSpaceOnUse">
      <stop stop-color="#333333"/>
    </linearGradient>
  </defs>
</svg>
