<svg xmlns="http://www.w3.org/2000/svg" width="56" height="56" viewBox="0 0 56 56" fill="none">
  <g clip-path="url(#clip0_1_1193)">
    <path d="M50.7501 40.2183H43.7501V43.7183H50.7501V40.2183Z" fill="#333333"/>
    <path d="M50.7501 33.2183H43.7501V36.7183H50.7501V33.2183Z" fill="#333333"/>
    <path
      d="M43.7501 8.71829V29.7183H50.7501V8.71829H43.7501ZM48.1251 27.0933H46.3751C45.8939 27.0933 45.5001 26.6995 45.5001 26.2183C45.5001 25.737 45.8939 25.3433 46.3751 25.3433H48.1251C48.6064 25.3433 49.0001 25.737 49.0001 26.2183C49.0001 26.6995 48.6064 27.0933 48.1251 27.0933ZM48.1251 23.5933H46.3751C45.8939 23.5933 45.5001 23.1995 45.5001 22.7183C45.5001 22.237 45.8939 21.8433 46.3751 21.8433H48.1251C48.6064 21.8433 49.0001 22.237 49.0001 22.7183C49.0001 23.1995 48.6064 23.5933 48.1251 23.5933ZM48.1251 20.0933H46.3751C45.8939 20.0933 45.5001 19.6995 45.5001 19.2183C45.5001 18.737 45.8939 18.3433 46.3751 18.3433H48.1251C48.6064 18.3433 49.0001 18.737 49.0001 19.2183C49.0001 19.6995 48.6064 20.0933 48.1251 20.0933ZM48.1251 16.5933H46.3751C45.8939 16.5933 45.5001 16.1995 45.5001 15.7183C45.5001 15.237 45.8939 14.8433 46.3751 14.8433H48.1251C48.6064 14.8433 49.0001 15.237 49.0001 15.7183C49.0001 16.1995 48.6064 16.5933 48.1251 16.5933ZM48.1251 13.0933H46.3751C45.8939 13.0933 45.5001 12.6995 45.5001 12.2183C45.5001 11.737 45.8939 11.3433 46.3751 11.3433H48.1251C48.6064 11.3433 49.0001 11.737 49.0001 12.2183C49.0001 12.6995 48.6064 13.0933 48.1251 13.0933Z"
      fill="#333333"/>
    <path
      d="M55.1251 51.5933V5.21829C55.1251 5.06079 55.0726 4.92079 55.0026 4.79829C54.3376 2.47954 52.2376 0.843292 49.7876 0.843292H6.2125C4.9175 0.843292 3.71 1.29829 2.75625 2.07704C1.81125 2.85579 1.12875 3.94079 0.875 5.21829H3.5175C3.5175 5.30579 3.5175 5.40204 3.54375 5.48954L6.46625 14.5633C6.6325 15.1145 6.86875 15.6483 7.14 16.1383C8.46125 18.5795 10.85 20.0933 13.3787 20.0933H26.8713C29.4 20.0933 31.7888 18.5795 33.1012 16.147C33.3813 15.6483 33.6175 15.1145 33.7838 14.572L36.7062 5.48954C36.7325 5.40204 36.7325 5.30579 36.7325 5.21829H39.375V46.3433H36.5312L35.875 43.7183C35.875 40.7433 35.5688 38.022 34.9738 35.6333C33.9062 31.372 32.2 29.2195 31.5 28.4758V25.632L33.95 22.3683C34.1512 22.1058 34.1775 21.747 34.0287 21.4495C33.88 21.152 33.5825 20.9683 33.25 20.9683H9.625C9.14375 20.9683 8.75 21.362 8.75 21.8433V24.4683H3.5C1.56625 24.4683 0 26.0345 0 27.9683V34.0933C0 35.537 1.18125 36.7183 2.625 36.7183C3.33375 36.7183 3.99875 36.4383 4.47125 35.957C4.97 35.467 5.25 34.802 5.25 34.0933V29.7183H7.77875C6.9825 30.8908 5.985 32.7895 5.27625 35.6333C4.68125 38.022 4.375 40.7433 4.375 43.7183L3.71875 46.3433H2.625C1.6625 46.3433 0.875 47.1308 0.875 48.0933V51.5933C0.39375 51.5933 0 51.987 0 52.4683V55.0933C0 55.5745 0.39375 55.9683 0.875 55.9683H55.125C55.6063 55.9683 56 55.5745 56 55.0933V52.4683C56.0001 51.987 55.6064 51.5933 55.1251 51.5933ZM26.8714 18.3433H13.3787C11.62 18.3433 9.9925 17.372 8.93375 15.7183H31.3162C30.2664 17.3633 28.6389 18.3433 26.8714 18.3433ZM10.5001 22.7183H31.5001L30.1876 24.4683H10.5001V22.7183ZM9.98375 29.7183H30.2663C30.7563 30.252 32.025 31.862 32.97 34.9683H7.28011C8.22511 31.862 9.49375 30.252 9.98375 29.7183ZM14.8751 39.3433C14.8751 39.8245 14.4814 40.2183 14.0001 40.2183H11.3751C10.8939 40.2183 10.5001 39.8245 10.5001 39.3433C10.5001 38.862 10.8939 38.4683 11.3751 38.4683H14.0001C14.4814 38.4683 14.8751 38.862 14.8751 39.3433ZM53.3751 51.5933H2.62511V48.0933H53.3751V51.5933ZM53.3751 46.3433H41.1251V5.21829H53.3751V46.3433Z"
      fill="#333333"/>
    <path
      d="M14.0001 31.4683H11.3751C10.8915 31.4683 10.5001 31.8596 10.5001 32.3433C10.5001 32.8269 10.8915 33.2183 11.3751 33.2183H14.0001C14.4838 33.2183 14.8751 32.8269 14.8751 32.3433C14.8751 31.8596 14.4838 31.4683 14.0001 31.4683Z"
      fill="#333333"/>
  </g>
  <defs>
    <clipPath id="clip0_1_1193">
      <rect width="56" height="56" fill="white"/>
    </clipPath>
  </defs>
</svg>
