<svg xmlns="http://www.w3.org/2000/svg" width="56" height="56" viewBox="0 0 56 56" fill="none">
  <path
    d="M15.6144 22.9097V50.5969H15.225C14.7029 50.5969 14.2021 50.8043 13.8329 51.1735C13.4637 51.5427 13.2563 52.0435 13.2563 52.5656C13.2563 53.0878 13.4637 53.5885 13.8329 53.9577C14.2021 54.327 14.7029 54.5344 15.225 54.5344H40.775C41.2971 54.5344 41.7979 54.327 42.1671 53.9577C42.5363 53.5885 42.7438 53.0878 42.7438 52.5656C42.7438 52.0435 42.5363 51.5427 42.1671 51.1735C41.7979 50.8043 41.2971 50.5969 40.775 50.5969H40.1888V44.7081H43.2316C46.4844 44.7081 49.0328 42.1181 49.0328 38.8019V26.0313C49.0328 22.7216 46.4844 20.125 43.2316 20.125H40.1888V16.1875C40.1891 15.6769 39.991 15.1862 39.6363 14.8188C39.2816 14.4515 38.7981 14.2363 38.2878 14.2188C38.81 14.2098 39.3071 13.9937 39.67 13.6181C40.0329 13.2426 40.2317 12.7382 40.2227 12.2161C40.2137 11.694 39.9976 11.1968 39.6221 10.8339C39.2465 10.4711 38.7421 10.2723 38.22 10.2813H29.9688V8.77188C30.7194 8.33849 31.3061 7.66952 31.6378 6.86872C31.9695 6.06792 32.0277 5.18005 31.8033 4.34281C31.579 3.50556 31.0847 2.76574 30.397 2.23808C29.7093 1.71042 28.8668 1.42441 28 1.42441C27.1332 1.42441 26.2907 1.71042 25.603 2.23808C24.9153 2.76574 24.421 3.50556 24.1967 4.34281C23.9723 5.18005 24.0305 6.06792 24.3622 6.86872C24.6939 7.66952 25.2806 8.33849 26.0313 8.77188V10.2813H17.5831C17.061 10.2633 16.5531 10.4534 16.1712 10.8099C15.7892 11.1664 15.5646 11.6601 15.5466 12.1822C15.5286 12.7043 15.7188 13.2122 16.0753 13.5942C16.4317 13.9761 16.9254 14.2008 17.4475 14.2188H11.7863C11.3942 14.2147 11.0099 14.3278 10.6825 14.5436C10.3551 14.7594 10.0997 15.068 9.94879 15.4299C9.79793 15.7917 9.75855 16.1904 9.83571 16.5748C9.91287 16.9593 10.103 17.3119 10.3819 17.5875L15.6144 22.9097ZM26.0313 24.0734V40.7706H19.5519V24.0734H26.0313ZM29.9688 24.0734H36.2513V40.7706H29.9688V24.0734ZM36.2513 50.5969H19.5519V44.7081H36.2513V50.5969ZM43.2316 24.0734C44.2947 24.0734 45.0953 24.9156 45.0953 26.0422V38.815C45.0953 39.935 44.2947 40.7838 43.2316 40.7838H40.1888V24.0734H43.2316ZM29.9688 20.1359V18.1672H36.2513V20.1359H29.9688ZM26.0313 18.1672V20.1359H18.4078L16.4828 18.1672H26.0313Z"
    fill="#333333"/>
</svg>
