<svg width="76" height="56" viewBox="0 0 76 56" fill="none" xmlns="http://www.w3.org/2000/svg">
  <g clip-path="url(#clip0_1_570)">
    <path d="M0.666748 0H75.3334V56H0.666748V0Z" fill="white"/>
    <path d="M0.666748 0H75.3334V16.8H0.666748V0Z" fill="black"/>
    <path d="M0.666748 39.2H75.3334V56H0.666748V39.2Z" fill="#006600"/>
    <path
      d="M27.99 44.625L28.62 44.975L44.965 16.625C45.91 16.415 46.435 15.505 46.96 14.595C47.31 13.965 48.71 11.55 49.305 8.39999C47.6445 9.87556 46.2375 11.6137 45.14 13.545C44.615 14.455 44.09 15.365 44.335 16.31L27.99 44.625Z"
      fill="black"/>
    <path fill-rule="evenodd" clip-rule="evenodd"
          d="M49.5722 7.92847L49.477 8.43247C48.9011 11.4812 47.5788 13.8465 47.1618 14.5925C47.1438 14.6247 47.1275 14.6539 47.113 14.68L47.1123 14.6812L47.1069 14.6905C46.8478 15.1398 46.5785 15.6065 46.2529 15.9864C45.9391 16.3524 45.5637 16.6493 45.0792 16.7773L28.6856 45.2116L27.7495 44.6916L44.1485 16.283C44.0388 15.7902 44.1185 15.3126 44.2842 14.8548C44.4557 14.3809 44.7247 13.9147 44.9841 13.4651L44.9879 13.4585C44.988 13.4584 44.9881 13.4582 44.9882 13.458C46.0951 11.5102 47.5141 9.75733 49.1888 8.26917L49.5722 7.92847ZM49.0252 8.89235C47.5505 10.2748 46.2918 11.8723 45.2922 13.6314L45.2916 13.6324C45.0274 14.0904 44.7733 14.5317 44.6133 14.9739C44.4544 15.4129 44.3937 15.839 44.5044 16.2661L44.5224 16.3354L28.2305 44.5584L28.5544 44.7384L44.8519 16.4709L44.927 16.4542C45.3504 16.3601 45.6872 16.1086 45.9871 15.7586C46.2893 15.4061 46.5436 14.9666 46.8077 14.5088C46.8219 14.4833 46.8377 14.4549 46.8552 14.4237C47.2446 13.727 48.4171 11.6292 49.0252 8.89235Z"
          fill="black"/>
    <path
      d="M27.99 44.625L28.62 44.975L44.965 16.625C45.91 16.415 46.435 15.505 46.96 14.595C47.31 13.965 48.71 11.55 49.305 8.39999C47.6445 9.87556 46.2375 11.6137 45.14 13.545C44.615 14.455 44.09 15.365 44.335 16.31L27.99 44.625Z"
      fill="white"/>
    <path
      d="M75.3916 19.6H44.65C43.6 16.8 40.1 11.2 38 11.2C35.9 11.2 32.4 16.8 31.35 19.6H0.643311V36.4H31.35C32.4 39.2 35.9 44.8 38 44.8C40.1 44.8 43.6 39.2 44.65 36.4H75.3916V19.6Z"
      fill="#BB0000"/>
    <path
      d="M44.6501 36.4C45.7001 33.6 46.4001 30.8 46.4001 28C46.4001 25.2 45.7001 22.4 44.6501 19.6C43.6001 22.4 42.9001 25.2 42.9001 28C42.9001 30.8 43.6001 33.6 44.6501 36.4Z"
      fill="black"/>
    <path
      d="M38.0001 30.1C38.7733 30.1 39.4001 29.1598 39.4001 28C39.4001 26.8402 38.7733 25.9 38.0001 25.9C37.2269 25.9 36.6001 26.8402 36.6001 28C36.6001 29.1598 37.2269 30.1 38.0001 30.1Z"
      fill="white"/>
    <path d="M38.3501 30.03C38.3501 30.03 39.7501 32.83 39.7501 37.38C39.7501 41.93 38.3501 44.73 38.3501 44.73V30.03Z"
          fill="white"/>
  </g>
  <defs>
    <clipPath id="clip0_1_570">
      <rect x="0.666748" width="74.6667" height="56" rx="8" fill="white"/>
    </clipPath>
  </defs>
</svg>
