<svg width="56" height="56" viewBox="0 0 56 56" fill="none" xmlns="http://www.w3.org/2000/svg">
  <g id="svgexport-43 (2) 1">
    <path id="Vector"
          d="M11.8508 10.8479C8.37884 10.5325 7.48541 12.4461 7.48541 12.4461C7.84975 12.5908 9.09228 13.0899 9.09228 13.0899L13.2539 21.0902L11.8508 10.8479ZM49.392 14.9314C49.616 11.8594 47.9113 10.7248 44.7473 9.83393C42.2719 9.13695 36.9523 9.37887 34.7537 9.51719C32.7204 9.02663 29.7115 8.44491 26.5106 8.3263C28.2943 7.30139 29.0804 4.03188 28.6707 3.32763C28.1925 2.50588 26.6924 2.23697 25.536 2.23697C24.3796 2.23697 22.8794 2.50588 22.4013 3.32763C21.9929 4.02975 22.7729 7.28201 24.5454 8.31711C18.7096 8.49463 13.7548 10.5118 13.7548 10.5118L15.8058 29.0749L16.3957 29.4206L16.8164 33.0558C16.8164 33.0558 17.6814 35.0001 25.8161 35.0001C33.9508 35.0001 34.3264 33.0865 34.3264 33.0865L34.8338 28.9633L35.5655 28.3956L36.5702 18.2246C38.7035 18.1427 41.2016 14.7298 42.466 13.8868C43.8483 12.9652 45.4142 14.4397 45.1378 15.945C44.8614 17.4503 44.0915 18.4333 45.0438 20.0116C45.9962 21.5899 45.5011 23.1333 44.7638 24.3928C44.0265 25.6524 45.8628 27.3419 45.3713 27.9922C44.8799 28.6424 39.8919 29.5843 44.7149 31.5197C49.5377 33.4552 49.392 28 49.392 28V14.9314ZM18.0742 29.6037L16.4553 11.9438C18.0727 12.276 19.6083 12.4607 21.1443 12.5419L22.5577 30.454C21.127 30.3373 19.1732 29.8486 18.0742 29.6037ZM30.2204 12.4709C31.4126 12.4065 32.4261 12.3213 33.1401 12.2264C34.0917 12.0999 34.5183 11.9301 35.0889 11.7431L33.4616 29.1943C32.6068 29.5196 30.7901 30.2378 28.8968 30.454L30.2204 12.4709Z"
          fill="#333333"/>
    <path id="Vector_2"
          d="M25.6147 36.4358C19.8901 36.4358 17.8287 35.2854 16.3315 34.6957L12.7778 51.7333C12.7778 51.7333 16.0735 54.5902 25.6146 54.5902C35.1557 54.5902 38.4567 51.7333 38.4567 51.7333L34.708 35.1019C32.3662 36.1056 30.1015 36.4358 25.6147 36.4358Z"
          fill="#333333"/>
  </g>
</svg>
