<svg xmlns="http://www.w3.org/2000/svg" width="41" height="48" viewBox="0 0 41 48" fill="none">
  <path
    d="M5.43621 0C3.77135 0 2.42233 1.3428 2.42233 3C2.42233 4.6572 3.77135 6 5.43621 6H9.65565H16.2862H24.1223H25.3278H32.6318C31.847 5.2368 31.3556 4.176 31.3556 3C31.3556 1.824 31.847 0.7632 32.6318 0H25.3278H24.1223H16.2862H9.65565H5.43621ZM35.575 1.2C35.0954 1.2 34.6355 1.38964 34.2963 1.72721C33.9572 2.06477 33.7667 2.52261 33.7667 3C33.7667 3.47739 33.9572 3.93523 34.2963 4.27279C34.6355 4.61036 35.0954 4.8 35.575 4.8C36.0546 4.8 36.5146 4.61036 36.8537 4.27279C37.1928 3.93523 37.3833 3.47739 37.3833 3C37.3833 2.52261 37.1928 2.06477 36.8537 1.72721C36.5146 1.38964 36.0546 1.2 35.575 1.2ZM4.047 8.4C3.12596 10.902 1.61437 15.2664 0.724672 19.2H29.9358C30.7242 15.1248 31.8258 11.1516 32.6577 8.4H22.9826L20.5056 14.4L16.889 12L12.0668 14.4L14.4355 8.4H4.047ZM34.9722 9.09844C33.5654 13.77 31.3556 22.0409 31.3556 27.9281V43.8164L34.9722 38.0555V9.09844ZM37.3833 9.49219V37.9781L41 42.4781V21.9281C41 18.3161 39.0289 13.0598 37.3833 9.49219ZM0.312618 21.2672C0.123347 22.3868 0.0112305 23.4293 0.0112305 24.3281V45.6C0.0112305 46.926 1.0902 48 2.42233 48H28.9445V27.9281C28.9445 25.9757 29.1659 23.8056 29.5143 21.6H0.312618V21.2672ZM10.8612 24C13.1674 24 15.1687 25.807 16.1826 28.4578C14.7335 29.0998 13.348 30.0465 12.128 31.2609C12.1063 31.2825 12.0885 31.305 12.0668 31.3266V30C12.0668 29.3364 11.5279 28.8 10.8612 28.8C10.1945 28.8 9.65565 29.3364 9.65565 30V34.5867C8.70567 36.3867 8.25832 38.2745 8.35356 40.0312C6.2776 38.7041 4.83344 35.79 4.83344 32.4C4.83344 27.7608 7.53267 24 10.8612 24ZM20.661 29.9039C21.9846 29.9407 23.1786 30.3821 24.0611 31.2609C26.4143 33.6033 25.6511 38.1614 22.3563 41.4422C19.0603 44.723 14.4812 45.4827 12.128 43.1391C9.77353 40.7955 10.5379 36.2374 13.8327 32.9578C15.8927 30.9073 18.455 29.8426 20.661 29.9039ZM19.7992 34.3031C19.4909 34.3031 19.1826 34.4201 18.9469 34.6547L15.5374 38.0484C15.0661 38.5176 15.0661 39.2761 15.5374 39.7453C15.7725 39.9793 16.0812 40.0969 16.3898 40.0969C16.6984 40.0969 17.0071 39.9793 17.2421 39.7453L20.6516 36.3516C21.123 35.8824 21.123 35.1239 20.6516 34.6547C20.4159 34.4201 20.1076 34.3031 19.7992 34.3031ZM36.2979 40.4719L31.6381 47.8945L39.8109 44.843L36.2979 40.4719Z"
    fill="#333333"/>
</svg>
