<svg width="76" height="56" viewBox="0 0 76 56" fill="none" xmlns="http://www.w3.org/2000/svg">
  <g id="Group">
    <path id="Vector" fill-rule="evenodd" clip-rule="evenodd" d="M-4 37.3406H80V46.6703H-4V37.3406Z" fill="#FFE700"/>
    <path id="Vector_2" fill-rule="evenodd" clip-rule="evenodd" d="M-4 28H80V37.3297H-4V28Z" fill="black"/>
    <path id="Vector_3" fill-rule="evenodd" clip-rule="evenodd" d="M-4 18.6703H80V28H-4V18.6703Z" fill="#DE3908"/>
    <path id="Vector_4" fill-rule="evenodd" clip-rule="evenodd" d="M-4 9.34064H80V18.6703H-4V9.34064Z" fill="#FFE700"/>
    <path id="Vector_5" fill-rule="evenodd" clip-rule="evenodd" d="M-4 0H80V9.32969H-4V0Z" fill="black"/>
    <path id="Vector_6" fill-rule="evenodd" clip-rule="evenodd"
          d="M46.7171 28C46.7171 30.3119 45.7987 32.5292 44.1639 34.164C42.5291 35.7988 40.3118 36.7172 37.9999 36.7172C35.688 36.7172 33.4707 35.7988 31.8359 34.164C30.2011 32.5292 29.2827 30.3119 29.2827 28C29.2827 25.6881 30.2011 23.4708 31.8359 21.836C33.4707 20.2012 35.688 19.2828 37.9999 19.2828C40.3118 19.2828 42.5291 20.2012 44.1639 21.836C45.7987 23.4708 46.7171 25.6881 46.7171 28Z"
          fill="#FFFDFF"/>
    <path id="Vector (Stroke)" fill-rule="evenodd" clip-rule="evenodd"
          d="M37.9999 19.3375C35.7025 19.3375 33.4991 20.2501 31.8746 21.8747C30.2501 23.4992 29.3374 25.7026 29.3374 28C29.3374 30.2974 30.2501 32.5008 31.8746 34.1253C33.4991 35.7498 35.7025 36.6625 37.9999 36.6625C40.2973 36.6625 42.5007 35.7498 44.1252 34.1253C45.7498 32.5008 46.6624 30.2974 46.6624 28C46.6624 25.7026 45.7498 23.4992 44.1252 21.8747C42.5007 20.2501 40.2973 19.3375 37.9999 19.3375ZM31.7972 21.7973C33.4423 20.1523 35.6735 19.2281 37.9999 19.2281C40.3264 19.2281 42.5575 20.1523 44.2026 21.7973C45.8476 23.4424 46.7718 25.6735 46.7718 28C46.7718 30.3264 45.8476 32.5576 44.2026 34.2026C42.5575 35.8477 40.3264 36.7719 37.9999 36.7719C35.6735 36.7719 33.4423 35.8477 31.7972 34.2026C30.1522 32.5576 29.228 30.3264 29.228 28C29.228 25.6735 30.1522 23.4424 31.7972 21.7973Z"
          fill="black"/>
    <path id="Vector_7" fill-rule="evenodd" clip-rule="evenodd"
          d="M36.4687 21.3172L35.8999 20.2781C36.1187 20.0594 36.4796 19.8844 37.0702 19.8844L37.0046 21.0328L36.4577 21.3172H36.4687Z"
          fill="#DE3108"/>
    <path id="Vector (Stroke)_2" fill-rule="evenodd" clip-rule="evenodd"
          d="M35.968 20.2885L36.4885 21.2395L36.9518 20.9986L37.0123 19.9396C36.4937 19.9501 36.17 20.1017 35.968 20.2885ZM36.541 21.3355L37.0574 21.067L37.1281 19.8297H37.0702C36.4682 19.8297 36.0922 20.0085 35.8613 20.2394L35.8323 20.2684L36.4207 21.3434L36.4472 21.3289L36.4577 21.3719H36.561L36.541 21.3355Z"
          fill="black"/>
    <path id="Vector_8" fill-rule="evenodd" clip-rule="evenodd"
          d="M37.0156 21.0328L37.0921 19.8844C37.0921 19.8844 38.2625 19.8187 38.8968 20.5844L38.2734 21.4812L37.0046 21.0437L37.0156 21.0328Z"
          fill="#FFE700"/>
    <path id="Vector (Stroke)_3" fill-rule="evenodd" clip-rule="evenodd"
          d="M37.1433 19.9377L37.0719 21.0091L38.252 21.4161L38.8278 20.5878C38.5233 20.24 38.1005 20.0765 37.7451 20.0007C37.5627 19.9618 37.3996 19.9464 37.2822 19.9407C37.2235 19.9379 37.1764 19.9374 37.1441 19.9377C37.1438 19.9377 37.1436 19.9377 37.1433 19.9377ZM36.9623 21.0087L37.0407 19.8325L37.089 19.8298L37.0921 19.8844C37.089 19.8298 37.089 19.8298 37.089 19.8298L37.0891 19.8298L37.0894 19.8297L37.0902 19.8297L37.093 19.8296C37.0954 19.8295 37.099 19.8293 37.1035 19.8292C37.1127 19.8289 37.126 19.8285 37.1431 19.8284C37.1773 19.8281 37.2265 19.8285 37.2875 19.8315C37.4094 19.8374 37.5785 19.8534 37.7679 19.8938C38.1458 19.9743 38.6106 20.1533 38.9389 20.5495L38.9654 20.5815L38.2946 21.5464L36.9041 21.0669L36.9623 21.0087Z"
          fill="black"/>
    <path id="Vector_9" fill-rule="evenodd" clip-rule="evenodd"
          d="M38.2844 21.4703L38.8641 20.5734C39.2469 20.9781 39.411 21.2625 39.4657 21.7C39.4766 21.7109 38.5579 21.9297 38.5579 21.9187L38.2844 21.4703Z"
          fill="#DE3108"/>
    <path id="Vector (Stroke)_4" fill-rule="evenodd" clip-rule="evenodd"
          d="M38.856 20.4853L38.9039 20.5359C39.2907 20.9448 39.4627 21.239 39.5196 21.6904C39.521 21.6977 39.5209 21.7055 39.5189 21.7133C39.5153 21.7281 39.5067 21.7369 39.5039 21.7397C39.4976 21.7459 39.491 21.7492 39.4894 21.7501L39.4892 21.7502C39.4844 21.7527 39.4792 21.7546 39.4758 21.7558C39.468 21.7586 39.4574 21.7619 39.4451 21.7655C39.4203 21.7727 39.3846 21.7823 39.3422 21.7933C39.2572 21.8153 39.143 21.8434 39.0287 21.8708C38.9143 21.8981 38.7995 21.9249 38.7132 21.9441C38.6701 21.9537 38.6337 21.9615 38.608 21.9666C38.5952 21.9691 38.5843 21.9711 38.5763 21.9723C38.5726 21.9729 38.5679 21.9735 38.5635 21.9737C38.5618 21.9738 38.5569 21.9741 38.5512 21.9733C38.5489 21.973 38.5414 21.9719 38.5329 21.9675C38.5273 21.9646 38.5163 21.9572 38.5093 21.9441L38.2378 21.4988L38.2845 21.4703L38.2386 21.4406L38.856 20.4853ZM38.3491 21.4712L38.5858 21.8595C38.5861 21.8594 38.5865 21.8593 38.5868 21.8593C38.6112 21.8545 38.6466 21.8469 38.6894 21.8373C38.775 21.8183 38.8892 21.7917 39.0032 21.7644C39.1172 21.7371 39.2307 21.7091 39.3148 21.6874C39.3518 21.6778 39.3828 21.6695 39.4056 21.6631C39.3501 21.2832 39.2032 21.0209 38.8721 20.662L38.3491 21.4712ZM38.606 21.8926L38.6038 21.8889C38.6046 21.8901 38.6053 21.8913 38.606 21.8926Z"
          fill="black"/>
    <path id="Vector_10" fill-rule="evenodd" clip-rule="evenodd"
          d="M36.7532 36.2141C36.7532 36.2141 37.836 34.9781 39.936 35.2406C39.6188 34.7266 38.5907 34.7922 38.5907 34.7922C38.5907 34.7922 38.2844 32.3859 38.5251 32.2547C38.7657 32.1234 39.8376 32.2656 39.8376 32.2656C39.9688 32.2656 40.2094 31.8937 40.0126 31.6531C39.8266 31.4125 39.2688 30.5047 39.4985 30.3187C39.7282 30.1437 40.9641 30.4281 40.9641 30.4281L37.4641 25.9437C37.4641 25.9437 37.1032 24.2484 37.8251 23.4281C38.6891 22.7172 38.5907 21.9406 38.5688 21.9516C38.4485 21.1641 37.2563 20.6062 36.4469 21.3281C35.9766 21.8969 36.2938 22.3344 36.2938 22.3344C36.2938 22.3344 35.036 22.6734 34.9922 22.8922C34.9376 23.1109 36.4032 22.8594 36.4032 22.8594L36.261 23.8547C36.261 23.8547 33.4172 26.4359 35.6047 28.6672L35.6704 28.5797C35.6704 28.5797 36.436 29.5203 37.2344 29.7281C38.0001 30.4937 37.9235 30.3844 37.9235 30.3844C37.9235 30.3844 38.0657 31.5984 37.9235 31.8391C37.7376 31.7844 35.8126 31.7078 35.5282 31.8172C35.2657 31.9047 34.2813 31.85 34.5219 33.4687L34.8829 32.6484C34.8829 32.6484 34.8501 33.2281 35.0907 33.4359C35.0469 32.8234 35.3204 32.4078 35.3204 32.4078C35.3204 32.4078 35.3641 33.0859 35.5172 33.1734C35.6704 33.2828 35.6704 32.0797 36.5016 32.1891C37.311 32.2875 37.9126 32.2547 37.9126 32.2547C37.9126 32.2547 38.186 34.5953 38.0985 34.8141C37.5079 34.6719 36.086 34.8687 35.9985 35.2297C36.8297 35.175 37.2126 35.2734 37.2126 35.2734C37.2126 35.2734 36.5454 35.875 36.7532 36.2141Z"
          fill="black"/>
    <path id="Vector (Stroke)_5" fill-rule="evenodd" clip-rule="evenodd"
          d="M38.6153 21.9313C38.5467 21.521 38.205 21.178 37.7826 21.0275C37.3538 20.8746 36.8339 20.9169 36.414 21.2914C36.4122 21.293 36.4104 21.2948 36.4089 21.2968C36.1653 21.5912 36.1229 21.8561 36.1449 22.0501C36.1559 22.1463 36.1825 22.2237 36.2065 22.2773C36.2109 22.2869 36.2151 22.2958 36.2192 22.304C36.185 22.3136 36.1381 22.3271 36.0824 22.3436C35.9634 22.3789 35.804 22.4284 35.643 22.4848C35.4824 22.5411 35.3187 22.6048 35.1918 22.6688C35.1284 22.7007 35.0725 22.7336 35.0302 22.7667C34.9906 22.7977 34.9536 22.836 34.9441 22.8814C34.9376 22.9086 34.9429 22.9354 34.9597 22.9576C34.9751 22.9778 34.9973 22.9906 35.0186 22.9992C35.0613 23.0164 35.1208 23.0248 35.1868 23.0285C35.3205 23.0359 35.5017 23.0246 35.6819 23.0068C35.8628 22.9889 36.0451 22.9642 36.1821 22.9439C36.2488 22.9341 36.3048 22.9253 36.3448 22.9189L36.2146 23.8305C36.2095 23.8352 36.2031 23.8413 36.1954 23.8487C36.1748 23.8685 36.1449 23.8976 36.1078 23.9355C36.0335 24.0112 35.9301 24.1217 35.813 24.2612C35.5789 24.5401 35.289 24.936 35.0679 25.4032C34.8468 25.8702 34.6934 26.4107 34.7352 26.9775C34.7771 27.5455 35.0149 28.136 35.5695 28.7016C35.5795 28.7119 35.5935 28.7172 35.6078 28.7163C35.6222 28.7153 35.6354 28.7082 35.644 28.6967L35.6725 28.6586C35.6951 28.6847 35.7267 28.7205 35.7661 28.7633C35.8512 28.8555 35.9729 28.9808 36.12 29.1126C36.4096 29.3723 36.8025 29.6626 37.2089 29.7723C37.5851 30.1484 37.756 30.3112 37.8331 30.3801C37.8526 30.3974 37.8666 30.4093 37.8768 30.4173C37.8771 30.4175 37.8773 30.4177 37.8776 30.4179C37.8784 30.4249 37.8792 30.433 37.8802 30.4423C37.8838 30.4757 37.8888 30.5239 37.8943 30.5825C37.9054 30.6996 37.9187 30.8582 37.9275 31.0241C37.9364 31.1902 37.9407 31.3627 37.9342 31.508C37.9309 31.5807 37.9249 31.6456 37.9157 31.6991C37.9097 31.7335 37.9027 31.7614 37.895 31.7828C37.8657 31.778 37.8276 31.7734 37.7836 31.769C37.7118 31.7618 37.6195 31.7547 37.5137 31.7481C37.3019 31.7349 37.0343 31.7236 36.7637 31.7174C36.4932 31.7112 36.2191 31.7102 35.9945 31.7176C35.8822 31.7213 35.7817 31.7271 35.6999 31.7355C35.6204 31.7437 35.5539 31.7548 35.5115 31.7708C35.4825 31.7804 35.4422 31.7884 35.3902 31.7986L35.3851 31.7995C35.3349 31.8093 35.2762 31.8207 35.2139 31.8369C35.085 31.8702 34.9374 31.9245 34.8054 32.0303C34.5375 32.2453 34.3514 32.6575 34.4731 33.476C34.4763 33.4977 34.4935 33.5146 34.5152 33.5175C34.537 33.5204 34.558 33.5086 34.5668 33.4886L34.8377 32.8729C34.8401 32.9038 34.8432 32.9366 34.8476 32.9705C34.8588 33.0581 34.8779 33.154 34.9104 33.2422C34.9427 33.33 34.9895 33.4137 35.0584 33.4732C35.0734 33.4862 35.0948 33.4888 35.1126 33.4799C35.1304 33.471 35.141 33.4523 35.1396 33.4324C35.1183 33.1343 35.1742 32.884 35.2354 32.7084C35.2527 32.6589 35.2703 32.6154 35.2867 32.5785C35.2931 32.6343 35.3016 32.6993 35.3127 32.7659C35.3279 32.8572 35.3482 32.9531 35.3751 33.0326C35.3885 33.0724 35.4041 33.1095 35.4223 33.1404C35.4396 33.1699 35.4618 33.1978 35.4906 33.215C35.5095 33.2277 35.5336 33.2343 35.5594 33.226C35.5825 33.2186 35.5984 33.2015 35.609 33.1871C35.63 33.1584 35.6479 33.1142 35.6649 33.0671C35.675 33.0392 35.6852 33.0088 35.6962 32.9764C35.7241 32.8936 35.7563 32.7982 35.7999 32.7014C35.86 32.5678 35.9388 32.4392 36.0493 32.3505C36.1581 32.2632 36.3005 32.2122 36.4951 32.2379L36.4955 32.2379C36.9023 32.2874 37.2568 32.3039 37.5097 32.308C37.6361 32.3101 37.7372 32.309 37.8069 32.3075C37.8315 32.3069 37.8523 32.3063 37.8688 32.3057C37.8705 32.3208 37.8726 32.3394 37.8751 32.3612C37.8824 32.4256 37.8927 32.5178 37.9048 32.6291C37.9291 32.8519 37.9605 33.151 37.9892 33.4569C38.0179 33.763 38.0438 34.0753 38.0571 34.3245C38.0637 34.4492 38.0671 34.5573 38.0663 34.6408C38.0658 34.6825 38.0643 34.7173 38.0617 34.7446C38.0613 34.7484 38.0609 34.752 38.0605 34.7554C37.752 34.6946 37.2712 34.7117 36.8512 34.7847C36.6291 34.8233 36.4205 34.8782 36.2608 34.9473C36.181 34.9818 36.1115 35.0207 36.0583 35.0643C36.0054 35.1076 35.9649 35.1586 35.9505 35.2181C35.9468 35.2333 35.9506 35.2494 35.9607 35.2614C35.9708 35.2733 35.9859 35.2798 36.0016 35.2788C36.4148 35.2516 36.7157 35.2625 36.9127 35.2801C36.9975 35.2876 37.063 35.2964 37.1099 35.3039C37.0994 35.3144 37.088 35.326 37.0759 35.3386C37.0157 35.4013 36.9372 35.4888 36.865 35.5876C36.7932 35.6859 36.7259 35.7977 36.6903 35.909C36.6546 36.0203 36.6487 36.138 36.7111 36.2398L36.753 36.2141C36.7901 36.2465 36.79 36.2465 36.79 36.2465L36.7901 36.2464L36.7906 36.2459L36.7927 36.2436C36.7946 36.2415 36.7976 36.2382 36.8016 36.2339C36.8096 36.2254 36.8218 36.2127 36.8382 36.1965C36.871 36.1641 36.9205 36.1178 36.9865 36.0629C37.1185 35.953 37.3166 35.8088 37.5796 35.6726C38.1052 35.4004 38.8909 35.1596 39.9297 35.2895C39.9485 35.2918 39.967 35.2832 39.9773 35.2672C39.9875 35.2513 39.9877 35.2309 39.9777 35.2148C39.8069 34.9379 39.4505 34.8232 39.1521 34.775C39.0008 34.7506 38.86 34.7427 38.757 34.7407C38.7055 34.7398 38.6634 34.7404 38.634 34.7412C38.6339 34.7412 38.6339 34.7412 38.6338 34.7412C38.6319 34.7254 38.6295 34.7058 38.6267 34.6827C38.6188 34.6168 38.6078 34.5224 38.5954 34.4088C38.5705 34.1815 38.5398 33.8772 38.5166 33.569C38.4934 33.2604 38.4778 32.9492 38.4829 32.7076C38.4854 32.5865 38.4931 32.4849 38.507 32.4104C38.514 32.3731 38.5222 32.3447 38.531 32.3247C38.5403 32.3036 38.5476 32.2984 38.5485 32.2979C38.5714 32.2854 38.608 32.2744 38.6584 32.266C38.708 32.2578 38.7674 32.2527 38.8334 32.2502C38.9653 32.2452 39.1199 32.2505 39.2682 32.26C39.4163 32.2696 39.5571 32.2832 39.6609 32.2944C39.7127 32.3 39.7553 32.305 39.7849 32.3086C39.7997 32.3104 39.8113 32.3119 39.8191 32.3129L39.828 32.314L39.8302 32.3143L39.8308 32.3144L39.8309 32.3144C39.833 32.3147 39.8352 32.3148 39.8374 32.3148C39.8907 32.3148 39.9425 32.2794 39.9829 32.2382C40.0256 32.1948 40.0651 32.1355 40.0933 32.0687C40.1491 31.9366 40.1648 31.7622 40.051 31.6225C39.96 31.5047 39.7762 31.221 39.6439 30.9442C39.5776 30.8054 39.5256 30.6713 39.5039 30.5622C39.493 30.5077 39.4903 30.4622 39.4956 30.4268C39.5006 30.3923 39.5127 30.3708 39.5288 30.3575C39.5479 30.3432 39.5825 30.3303 39.6351 30.3218C39.687 30.3134 39.751 30.3102 39.8236 30.3112C39.9686 30.3132 40.1422 30.332 40.3102 30.3565C40.4779 30.381 40.6387 30.4109 40.7576 30.4347C40.817 30.4466 40.866 30.457 40.9 30.4643C40.917 30.468 40.9303 30.471 40.9393 30.473L40.9495 30.4753L40.9521 30.4759L40.9527 30.476L40.9529 30.4761C40.9732 30.4807 40.9943 30.4721 41.0055 30.4546C41.0167 30.437 41.0156 30.4143 41.0028 30.3978L37.5099 25.9226C37.5094 25.9204 37.5089 25.9179 37.5084 25.9151C37.506 25.9027 37.5025 25.8844 37.4983 25.8607C37.49 25.8134 37.4788 25.7447 37.4677 25.6596C37.4453 25.4894 37.423 25.254 37.423 24.9935C37.423 24.4708 37.513 23.8596 37.8593 23.4636C38.2971 23.1023 38.4932 22.7229 38.5763 22.4327C38.6179 22.2875 38.6311 22.1649 38.6324 22.0784C38.633 22.0352 38.6307 22.0004 38.6271 21.9757C38.6254 21.9637 38.6232 21.9524 38.6202 21.9433C38.6193 21.9406 38.6178 21.9361 38.6153 21.9313ZM37.464 25.9437C37.4158 25.954 37.4158 25.954 37.4158 25.9539L37.4157 25.9536L37.4155 25.9526L37.4147 25.9487C37.414 25.9453 37.4131 25.9404 37.4118 25.9339C37.4093 25.921 37.4057 25.9021 37.4014 25.8778C37.3928 25.8293 37.3814 25.7591 37.3701 25.6724C37.3473 25.4992 37.3245 25.2594 37.3245 24.9935C37.3245 24.4648 37.4145 23.82 37.788 23.3956C37.7897 23.3936 37.7916 23.3918 37.7936 23.3901C38.2177 23.0412 38.4037 22.678 38.4817 22.4056C38.5208 22.2691 38.5328 22.1552 38.534 22.077C38.5345 22.0377 38.5324 22.0082 38.5297 21.9897C38.5291 21.9852 38.5284 21.9817 38.5279 21.9792C38.5239 21.9732 38.5211 21.9663 38.52 21.959C38.4632 21.5874 38.1513 21.2634 37.7496 21.1202C37.3509 20.9781 36.8713 21.0173 36.4823 21.3624C36.2577 21.6354 36.2239 21.8726 36.2428 22.039C36.2523 22.1233 36.2756 22.1908 36.2964 22.237C36.3067 22.26 36.3164 22.2777 36.3233 22.2893C36.3267 22.2952 36.3295 22.2995 36.3313 22.3022C36.3322 22.3035 36.3328 22.3045 36.3332 22.3051L36.3335 22.3055C36.343 22.3186 36.3455 22.3355 36.3401 22.3508C36.3347 22.366 36.3221 22.3777 36.3065 22.3819L36.3056 22.3821L36.303 22.3828L36.2926 22.3857C36.2834 22.3882 36.27 22.3919 36.2529 22.3967C36.2186 22.4064 36.1695 22.4204 36.1104 22.4379C35.9923 22.473 35.8345 22.522 35.6756 22.5777C35.5163 22.6335 35.3573 22.6956 35.2361 22.7567C35.1753 22.7873 35.1258 22.8168 35.0909 22.8442C35.0557 22.8717 35.0434 22.8909 35.0407 22.9003C35.041 22.9005 35.0414 22.9008 35.0418 22.901C35.0447 22.903 35.0491 22.9054 35.0554 22.9079C35.0824 22.9188 35.1284 22.9267 35.1922 22.9302C35.3179 22.9372 35.4929 22.9266 35.6722 22.9088C35.8509 22.8912 36.0316 22.8667 36.1677 22.8466C36.2357 22.8365 36.2925 22.8276 36.3323 22.8212C36.3522 22.8179 36.3678 22.8154 36.3785 22.8136L36.3906 22.8116L36.3947 22.8109C36.4102 22.8082 36.4261 22.8131 36.4373 22.8241C36.4486 22.835 36.454 22.8508 36.4518 22.8663L36.3096 23.8616C36.3079 23.873 36.3024 23.8834 36.2939 23.8911L36.2935 23.8915L36.2921 23.8928L36.2863 23.8982C36.2812 23.903 36.2735 23.9102 36.2635 23.9197C36.2435 23.9389 36.2144 23.9673 36.1781 24.0044C36.1053 24.0786 36.0037 24.1872 35.8884 24.3245C35.6577 24.5994 35.3733 24.9882 35.1569 25.4453C34.9405 25.9025 34.7932 26.4256 34.8334 26.9703C34.8725 27.5002 35.0893 28.0543 35.5999 28.5914L35.6308 28.5501C35.6399 28.538 35.6541 28.5308 35.6692 28.5305C35.6844 28.5302 35.6988 28.5369 35.7084 28.5486L35.7089 28.5492L35.7104 28.5511C35.7112 28.5521 35.7123 28.5533 35.7136 28.5549C35.7145 28.556 35.7156 28.5573 35.7168 28.5587C35.7224 28.5655 35.7309 28.5755 35.742 28.5884C35.7641 28.6141 35.7968 28.6513 35.8385 28.6965C35.922 28.7871 36.0415 28.91 36.1857 29.0393C36.4754 29.2991 36.8592 29.5796 37.2467 29.6805C37.2552 29.6827 37.2629 29.6871 37.2691 29.6933C37.652 30.0762 37.8233 30.2393 37.8987 30.3066C37.9141 30.3203 37.9251 30.3297 37.9328 30.3361C37.945 30.3385 37.9562 30.3454 37.9637 30.3561L37.9233 30.3844L37.8763 30.3899C37.8763 30.3899 37.8763 30.3899 37.8763 30.3899L37.9233 30.3844C37.9637 30.3561 37.9636 30.3561 37.9637 30.3561L37.9638 30.3563L37.9638 30.3564L37.9641 30.3567L37.9646 30.3575C37.9648 30.3579 37.9651 30.3583 37.9654 30.3588C37.9656 30.3591 37.9658 30.3595 37.9661 30.3598C37.9669 30.3613 37.969 30.3648 37.9708 30.3693C37.9717 30.3715 37.9733 30.3758 37.9741 30.3814C37.9745 30.384 37.9751 30.3893 37.9742 30.396C37.9752 30.4048 37.9765 30.4169 37.9781 30.4318C37.9817 30.4656 37.9868 30.5142 37.9923 30.5732C38.0035 30.6912 38.0169 30.8512 38.0258 31.0189C38.0347 31.1863 38.0393 31.3625 38.0325 31.5125C38.0291 31.5874 38.0229 31.6568 38.0127 31.7158C38.0027 31.7738 37.9881 31.8262 37.9657 31.8641C37.9543 31.8835 37.9311 31.8926 37.9095 31.8863C37.8914 31.881 37.8458 31.8741 37.7738 31.8669C37.7037 31.8599 37.6128 31.8529 37.5076 31.8463C37.2972 31.8332 37.0309 31.8219 36.7615 31.8158C36.4919 31.8097 36.2198 31.8087 35.9977 31.816C35.8866 31.8196 35.7886 31.8253 35.71 31.8334C35.6298 31.8417 35.5745 31.852 35.5457 31.8631C35.545 31.8634 35.5443 31.8636 35.5436 31.8639C35.5071 31.876 35.4594 31.8854 35.409 31.8952L35.4046 31.896C35.354 31.9059 35.2979 31.9168 35.2386 31.9322C35.1166 31.9637 34.9839 32.0134 34.867 32.1071C34.6548 32.2774 34.4801 32.6059 34.5485 33.2859L34.8377 32.6286C34.8473 32.6068 34.8711 32.595 34.8942 32.6006C34.9173 32.6061 34.9332 32.6274 34.9319 32.6512M34.9319 32.6512L34.9318 32.6515L34.9318 32.6525L34.9316 32.6571C34.9314 32.6611 34.9312 32.6672 34.931 32.675C34.9306 32.6907 34.9302 32.7136 34.9306 32.7417C34.9312 32.798 34.9346 32.8749 34.9452 32.958C34.9559 33.0413 34.9737 33.1293 35.0027 33.2082C35.0128 33.2356 35.0241 33.2614 35.0367 33.2854C35.0389 33.0387 35.0888 32.8301 35.1425 32.676C35.1748 32.5833 35.2086 32.5101 35.2344 32.4598C35.2473 32.4347 35.2583 32.4152 35.2661 32.4019C35.2701 32.3952 35.2732 32.3901 35.2754 32.3866C35.2765 32.3848 35.2774 32.3834 35.278 32.3825L35.2787 32.3813L35.2791 32.3808C35.2791 32.3808 35.2791 32.3808 35.3202 32.4078L35.2791 32.3808C35.2907 32.3632 35.3124 32.3548 35.3328 32.3602C35.3533 32.3656 35.368 32.3835 35.3693 32.4046L35.3694 32.405L35.3695 32.4064L35.3698 32.4119C35.3702 32.4168 35.3707 32.424 35.3715 32.4332C35.3729 32.4516 35.3752 32.4781 35.3784 32.5102C35.3849 32.5745 35.395 32.6609 35.4098 32.7497C35.4247 32.8389 35.444 32.9289 35.4684 33.0011C35.4806 33.0373 35.4936 33.0675 35.5071 33.0904C35.5168 33.1069 35.5255 33.1176 35.5328 33.1242C35.5436 33.1074 35.5564 33.0778 35.5723 33.0337C35.5813 33.0089 35.5908 32.9805 35.6013 32.9495C35.6297 32.8655 35.6644 32.7625 35.7101 32.661C35.773 32.5213 35.8597 32.3764 35.9877 32.2737C36.1175 32.1696 36.2867 32.1112 36.5077 32.1402C36.9102 32.1892 37.2611 32.2055 37.5113 32.2096C37.6363 32.2116 37.7362 32.2106 37.8047 32.2091C37.8389 32.2083 37.8653 32.2074 37.8831 32.2067C37.8919 32.2064 37.8987 32.2061 37.9031 32.2059L37.9082 32.2056L37.9094 32.2056L37.9097 32.2055C37.9356 32.2041 37.9583 32.2231 37.9613 32.249L37.9124 32.2547C37.9613 32.249 37.9613 32.249 37.9613 32.249L37.9644 32.2754C37.9663 32.2926 37.9692 32.3179 37.9729 32.3501C37.9802 32.4146 37.9906 32.507 38.0027 32.6185C38.027 32.8415 38.0585 33.1412 38.0872 33.4477C38.1159 33.7542 38.142 34.0681 38.1554 34.3192C38.162 34.4448 38.1656 34.5553 38.1647 34.6418C38.1642 34.685 38.1627 34.7229 38.1597 34.754C38.1568 34.7838 38.1523 34.8117 38.144 34.8323C38.135 34.855 38.1106 34.8676 38.0868 34.8619C37.801 34.7931 37.3055 34.8056 36.8681 34.8817C36.65 34.9196 36.4498 34.9728 36.2999 35.0376C36.2249 35.0701 36.1643 35.1047 36.1207 35.1404C36.1062 35.1522 36.0941 35.1639 36.084 35.1752C36.4568 35.1547 36.7338 35.1653 36.9215 35.182C37.0226 35.191 37.0977 35.2018 37.1479 35.2104C37.173 35.2147 37.1919 35.2184 37.2046 35.2212C37.211 35.2225 37.2158 35.2236 37.2192 35.2244L37.2231 35.2254L37.2241 35.2256L37.2245 35.2257L37.2246 35.2257C37.2246 35.2257 37.2247 35.2258 37.2124 35.2734L37.2246 35.2257C37.2421 35.2303 37.2559 35.2441 37.2602 35.2617C37.2645 35.2793 37.2588 35.2978 37.2454 35.31C37.2454 35.31 37.2454 35.31 37.2454 35.31L37.245 35.3103L37.2437 35.3115L37.2385 35.3163C37.2338 35.3207 37.2269 35.3271 37.2182 35.3355C37.2008 35.3522 37.176 35.3765 37.1469 35.4068C37.0885 35.4676 37.0132 35.5516 36.9445 35.6456C36.8755 35.7401 36.815 35.8422 36.784 35.939C36.7618 36.0083 36.7558 36.0713 36.7692 36.1263C36.8039 36.0921 36.8553 36.044 36.9236 35.9872C37.0602 35.8735 37.2641 35.7252 37.5343 35.5852C38.0555 35.3153 38.8226 35.077 39.8273 35.1788C39.6642 35.0014 39.3923 34.9135 39.1364 34.8722C38.991 34.8488 38.855 34.841 38.7552 34.8392C38.7054 34.8382 38.6648 34.8388 38.6367 34.8396C38.6226 34.84 38.6118 34.8404 38.6045 34.8407C38.6021 34.8408 38.6002 34.8409 38.5986 34.841L38.5962 34.8412L38.5942 34.8413L38.5938 34.8413C38.5678 34.8429 38.545 34.8242 38.5417 34.7984L38.5905 34.7922C38.5417 34.7984 38.5417 34.7984 38.5417 34.7984L38.5417 34.7983L38.5416 34.7979L38.5408 34.7914L38.5383 34.7712C38.5361 34.7535 38.5329 34.7275 38.529 34.6944C38.5211 34.6282 38.51 34.5335 38.4975 34.4195C38.4725 34.1916 38.4417 33.8861 38.4184 33.5763C38.3951 33.2669 38.3793 32.952 38.3844 32.7055C38.387 32.5825 38.3949 32.4746 38.4103 32.3923C38.4179 32.3513 38.4278 32.3146 38.441 32.2849C38.4536 32.2564 38.4722 32.2274 38.5013 32.2115C38.5386 32.1911 38.5881 32.1779 38.6423 32.1689C38.6974 32.1598 38.7613 32.1544 38.8296 32.1518C38.9664 32.1466 39.1248 32.1522 39.2745 32.1618C39.4245 32.1714 39.5668 32.1852 39.6715 32.1965C39.7238 32.2022 39.7669 32.2073 39.7968 32.2109C39.8051 32.2119 39.8124 32.2128 39.8186 32.2136C39.8236 32.2142 39.828 32.2148 39.8315 32.2152L39.8397 32.2163C39.853 32.215 39.8793 32.2032 39.9127 32.1693C39.9459 32.1354 39.9788 32.0868 40.0026 32.0305C40.0506 31.9167 40.0568 31.7851 39.9743 31.6843L39.9734 31.6832C39.8783 31.5601 39.6906 31.27 39.5551 30.9867C39.4875 30.8452 39.4314 30.7024 39.4074 30.5815C39.3953 30.521 39.3907 30.4632 39.3982 30.4124C39.4058 30.3611 39.4263 30.3137 39.4674 30.2805L39.4685 30.2796C39.5069 30.2503 39.5611 30.234 39.6195 30.2246C39.6791 30.215 39.7493 30.2117 39.8249 30.2128C39.9762 30.2149 40.1547 30.2344 40.3244 30.2591C40.4944 30.2839 40.657 30.3141 40.7769 30.3382C40.8002 30.3428 40.8218 30.3472 40.8416 30.3513L37.4252 25.974C37.4206 25.9681 37.4174 25.9612 37.4158 25.9539L37.464 25.9437M38.5266 21.9738C38.5266 21.9737 38.5266 21.9738 38.5266 21.9738V21.9738Z"
          fill="black"/>
    <path id="Vector_11" fill-rule="evenodd" clip-rule="evenodd"
          d="M37.0812 23.4938C37.0812 23.4938 35.014 25.7688 35.9109 27.5078C35.9546 27.2672 35.9327 27.1141 35.9656 27.125C35.9109 27.0922 36.2171 27.3328 36.1952 27.2891C36.1952 27.1578 36.1077 26.8844 36.1077 26.8844L36.3812 26.9609L36.2171 26.6547L36.6218 26.6984C36.6218 26.6984 36.4796 26.3266 36.5234 26.3266L36.8515 26.3484C36.2609 25.2984 36.8187 24.4234 37.0812 23.4828V23.4938Z"
          fill="#9CA69C"/>
    <path id="Vector (Stroke)_6" fill-rule="evenodd" clip-rule="evenodd"
          d="M37.0881 23.4341C37.1124 23.4374 37.1306 23.4582 37.1306 23.4828V23.4938C37.1306 23.5041 37.1273 23.5142 37.1213 23.5225C37.0676 23.711 37.0025 23.8971 36.9383 24.0809C36.9248 24.1193 36.9114 24.1576 36.8982 24.1959C36.8183 24.4264 36.7433 24.6542 36.6948 24.8848C36.5981 25.3438 36.6065 25.8122 36.8946 26.3243C36.9034 26.3401 36.903 26.3594 36.8933 26.3747C36.8837 26.39 36.8664 26.3988 36.8484 26.3976L36.5696 26.379C36.5764 26.4107 36.5889 26.4532 36.6032 26.4974C36.618 26.5431 36.6342 26.589 36.6467 26.6236C36.653 26.6408 36.6583 26.6552 36.6621 26.6652L36.6664 26.6768L36.6676 26.6799L36.6679 26.6806L36.668 26.6808C36.6741 26.6968 36.6714 26.7149 36.661 26.7285C36.6505 26.7421 36.6337 26.7492 36.6167 26.7474L36.3047 26.7136L36.4248 26.9377C36.4341 26.9551 36.4321 26.9764 36.4198 26.9917C36.4074 27.0071 36.3871 27.0137 36.3681 27.0083L36.1806 26.9558C36.1865 26.9767 36.1929 27.0002 36.1993 27.0252C36.2203 27.1065 36.243 27.209 36.2446 27.2814C36.245 27.2836 36.2454 27.286 36.2456 27.2886C36.2466 27.3008 36.2431 27.3225 36.2221 27.3357C36.2065 27.3456 36.191 27.3437 36.1867 27.3431C36.1805 27.3422 36.1754 27.3405 36.1722 27.3393C36.1606 27.3349 36.1466 27.3265 36.1345 27.3187C36.1081 27.3018 36.0724 27.2759 36.0386 27.2504C36.0226 27.2383 36.0068 27.2261 35.9923 27.2147C35.9921 27.218 35.9918 27.2215 35.9916 27.2251C35.9915 27.2275 35.9913 27.23 35.9912 27.2325C35.9871 27.2994 35.9811 27.3976 35.9595 27.5166C35.9557 27.5374 35.9392 27.5534 35.9183 27.5565C35.8975 27.5596 35.877 27.5491 35.8673 27.5304C35.4073 26.6385 35.7098 25.6154 36.1161 24.8261C36.3201 24.4299 36.5521 24.0888 36.733 23.8469C36.8235 23.7259 36.9013 23.6295 36.9565 23.5634C36.9842 23.5303 37.0062 23.5047 37.0213 23.4874C37.0256 23.4824 37.0294 23.4781 37.0326 23.4745C37.0331 23.4729 37.0335 23.4712 37.034 23.4696C37.0406 23.4459 37.0637 23.4307 37.0881 23.4341ZM36.959 23.7158C36.9161 23.7692 36.8663 23.833 36.8118 23.9059C36.6331 24.1449 36.4044 24.4812 36.2036 24.8712C35.8243 25.6081 35.5516 26.523 35.885 27.3343C35.8889 27.293 35.8911 27.2567 35.893 27.226L35.8934 27.2191C35.8953 27.187 35.8972 27.1575 35.9012 27.1369C35.9029 27.1283 35.9061 27.1143 35.9143 27.1019C35.9276 27.0715 35.959 27.0726 35.9628 27.0728C35.9703 27.0733 35.9761 27.0755 35.9777 27.0761C35.9801 27.077 35.9822 27.078 35.9835 27.0786C35.9862 27.08 35.9889 27.0815 35.9911 27.0828C35.9989 27.0875 36.0051 27.0942 36.0091 27.1018C36.0104 27.1028 36.0118 27.104 36.0132 27.1052C36.0331 27.1218 36.0649 27.1469 36.0979 27.1719C36.1112 27.1819 36.1245 27.1917 36.1372 27.2009C36.1292 27.1534 36.1169 27.0998 36.104 27.0498C36.0933 27.0081 36.0825 26.9704 36.0744 26.9431C36.0704 26.9295 36.067 26.9185 36.0647 26.9109L36.062 26.9023L36.0613 26.9001L36.0611 26.8994L36.1079 26.8844M36.7662 26.2934C36.5057 25.786 36.5032 25.3171 36.5984 24.8645C36.6484 24.6274 36.7251 24.3945 36.8052 24.1636C36.8186 24.1249 36.8321 24.0862 36.8456 24.0476C36.8843 23.9369 36.9229 23.8265 36.959 23.7158"
          fill="#9CA69C"/>
    <path id="Vector_12" fill-rule="evenodd" clip-rule="evenodd"
          d="M37.803 21.5359C37.803 21.5359 37.9124 22.3235 37.4749 22.5422C37.4202 22.5969 37.1468 22.6844 37.1905 22.8484C37.2343 23.0672 37.3546 23.0234 37.5186 22.9797C37.9671 22.9031 38.4921 21.9516 37.803 21.5359Z"
          fill="#9CA69C"/>
    <path id="Vector (Stroke)_7" fill-rule="evenodd" clip-rule="evenodd"
          d="M37.7332 21.4299L37.8314 21.4891C38.0152 21.5999 38.1207 21.7487 38.1653 21.9117C38.2095 22.0734 38.1925 22.2451 38.1394 22.4025C38.0862 22.5598 37.9958 22.7058 37.8889 22.818C37.7834 22.9286 37.6575 23.0107 37.5306 23.0331C37.5242 23.0349 37.5177 23.0366 37.5112 23.0383C37.4786 23.0472 37.4456 23.0561 37.4149 23.0621C37.3775 23.0694 37.3375 23.0736 37.2992 23.0662C37.2586 23.0582 37.2224 23.0377 37.194 23.0007C37.1671 22.9658 37.1492 22.919 37.1374 22.8608C37.1068 22.742 37.1944 22.6591 37.2644 22.6096C37.2999 22.5845 37.3381 22.563 37.3692 22.5454C37.371 22.5444 37.3728 22.5434 37.3745 22.5424C37.391 22.5331 37.4049 22.5252 37.4162 22.518C37.4281 22.5105 37.4341 22.5058 37.4364 22.5035L37.4427 22.4972L37.4506 22.4933C37.643 22.3971 37.722 22.1713 37.7489 21.9504C37.7621 21.8422 37.7621 21.7401 37.7588 21.6648C37.7571 21.6273 37.7547 21.5966 37.7526 21.5755C37.7516 21.5649 37.7507 21.5567 37.75 21.5513C37.7497 21.5486 37.7494 21.5465 37.7492 21.5452L37.7491 21.5438L37.749 21.5435L37.7332 21.4299ZM37.8675 21.6482C37.8677 21.652 37.8679 21.656 37.8681 21.66C37.8716 21.7392 37.8716 21.8477 37.8575 21.9636C37.83 22.189 37.7463 22.4632 37.5065 22.5875C37.4966 22.5961 37.4851 22.6039 37.4745 22.6106C37.4606 22.6193 37.4445 22.6285 37.4283 22.6376C37.427 22.6384 37.4256 22.6392 37.4243 22.6399C37.3922 22.658 37.3584 22.6772 37.3275 22.699C37.2584 22.7477 37.2317 22.79 37.2435 22.8343L37.244 22.836L37.2443 22.8377C37.2544 22.8881 37.2678 22.9173 37.2807 22.934C37.2922 22.949 37.3046 22.9558 37.3201 22.9588C37.3378 22.9623 37.3614 22.9611 37.394 22.9547C37.4204 22.9496 37.4487 22.9419 37.4811 22.9332C37.4887 22.9311 37.4966 22.929 37.5047 22.9268L37.5071 22.9262L37.5096 22.9258C37.606 22.9093 37.7129 22.844 37.8097 22.7425C37.9058 22.6417 37.9878 22.5095 38.0357 22.3674C38.0838 22.2254 38.0969 22.0764 38.0598 21.9405C38.0308 21.8344 37.9704 21.7336 37.8675 21.6482Z"
          fill="#9CA69C"/>
    <path id="Vector_13" fill-rule="evenodd" clip-rule="evenodd"
          d="M37.0376 22.2031C37.0376 22.2466 37.0203 22.2884 36.9895 22.3191C36.9588 22.3499 36.917 22.3672 36.8735 22.3672C36.83 22.3672 36.7883 22.3499 36.7575 22.3191C36.7268 22.2884 36.7095 22.2466 36.7095 22.2031C36.7095 22.1596 36.7268 22.1179 36.7575 22.0871C36.7883 22.0563 36.83 22.0391 36.8735 22.0391C36.917 22.0391 36.9588 22.0563 36.9895 22.0871C37.0203 22.1179 37.0376 22.1596 37.0376 22.2031Z"
          fill="white"/>
    <path id="Vector_14" fill-rule="evenodd" clip-rule="evenodd"
          d="M36.3702 22.8594C36.2609 22.9578 35.6921 23.5484 36.2609 23.7672C36.8406 23.6141 36.6765 23.5047 36.8077 23.3734C36.8077 23.1 36.5234 23.0344 36.3702 22.8703V22.8594Z"
          fill="#DE3108"/>
    <path id="Vector (Stroke)_8" fill-rule="evenodd" clip-rule="evenodd"
          d="M36.4249 22.848V22.7366L36.3337 22.8187C36.277 22.8697 36.1009 23.0481 36.0115 23.2456C35.9667 23.3444 35.94 23.4562 35.9701 23.5619C36.001 23.6707 36.0881 23.7593 36.2413 23.8182L36.2578 23.8246L36.2748 23.8201C36.5651 23.7434 36.6859 23.6742 36.746 23.5952C36.7719 23.5612 36.785 23.5267 36.7951 23.4999C36.7966 23.496 36.798 23.4922 36.7994 23.4887C36.8104 23.4605 36.8214 23.4371 36.8464 23.4121L36.8624 23.3961V23.3734C36.8624 23.2127 36.7766 23.1138 36.6803 23.0379C36.6459 23.0108 36.6083 22.9852 36.5725 22.9609C36.5595 22.952 36.5467 22.9433 36.5344 22.9348C36.4935 22.9063 36.4563 22.8785 36.4249 22.848ZM36.3643 22.9411C36.2931 23.0134 36.1754 23.1485 36.1111 23.2907C36.0711 23.3792 36.0554 23.4622 36.0752 23.5319C36.0934 23.5956 36.1447 23.66 36.2643 23.7097C36.5399 23.6353 36.6241 23.5748 36.659 23.529C36.6747 23.5083 36.682 23.4891 36.6924 23.4621C36.694 23.4579 36.6957 23.4535 36.6975 23.4489C36.7088 23.4199 36.7233 23.387 36.7524 23.3528C36.7459 23.2519 36.6914 23.1859 36.6126 23.1238C36.5815 23.0993 36.5486 23.0769 36.514 23.0533C36.5003 23.044 36.4863 23.0345 36.472 23.0246C36.4357 22.9994 36.3985 22.9721 36.3643 22.9411Z"
          fill="black"/>
    <path id="Vector_15" fill-rule="evenodd" clip-rule="evenodd"
          d="M37.6282 28.4922C37.5953 28.6234 37.4641 29.1047 37.6391 29.4766C38.1422 29.2578 38.3719 29.3234 38.536 29.4328C38.1313 29.1047 37.9672 28.9625 37.6282 28.4922Z"
          fill="#9CA69C"/>
    <path id="Vector (Stroke)_9" fill-rule="evenodd" clip-rule="evenodd"
          d="M37.668 28.4634C38.0037 28.9291 38.1643 29.0681 38.5669 29.3946C38.5873 29.4111 38.5911 29.4408 38.5755 29.462C38.5599 29.4832 38.5304 29.4884 38.5086 29.4738C38.4326 29.4231 38.3432 29.3834 38.2136 29.3809C38.0824 29.3783 37.9065 29.4139 37.6586 29.5217C37.6342 29.5323 37.6058 29.5216 37.5945 29.4975C37.5017 29.3005 37.4912 29.0773 37.5065 28.8901C37.5209 28.7154 37.5583 28.5675 37.5765 28.4952C37.5779 28.4898 37.5792 28.4848 37.5803 28.4803L37.6281 28.4922L37.668 28.4634ZM37.6508 28.6068C37.8864 28.9255 38.0424 29.085 38.2808 29.2866C38.26 29.2843 38.2383 29.2829 38.2155 29.2824C38.0742 29.2797 37.8974 29.3157 37.6647 29.4122C37.5996 29.2477 37.5911 29.0627 37.6046 28.8982C37.614 28.7846 37.6335 28.6829 37.6508 28.6068Z"
          fill="#9CA69C"/>
    <path id="Vector_16" fill-rule="evenodd" clip-rule="evenodd"
          d="M38.4812 30.7453L38.5031 31.8609C38.5031 31.8609 38.8968 31.9265 39.0718 31.8609C39.2468 31.7953 39.0718 31.0953 38.4812 30.7453Z"
          fill="white"/>
    <path id="Vector (Stroke)_10" fill-rule="evenodd" clip-rule="evenodd"
          d="M38.4566 30.7028C38.472 30.6938 38.4911 30.6939 38.5064 30.703C38.8121 30.8841 39.0099 31.1554 39.1091 31.3907C39.1586 31.508 39.1847 31.619 39.1858 31.7075C39.1864 31.7517 39.1808 31.793 39.1665 31.8274C39.1521 31.8623 39.1273 31.8928 39.0893 31.907C39.0385 31.9261 38.9751 31.9346 38.9117 31.9378C38.8476 31.941 38.7799 31.9388 38.7186 31.9347C38.6572 31.9305 38.6015 31.9242 38.5612 31.919C38.541 31.9164 38.5246 31.914 38.5132 31.9123C38.5075 31.9115 38.503 31.9108 38.5 31.9103L38.4964 31.9097L38.4955 31.9096L38.4952 31.9095C38.4952 31.9095 38.4951 31.9095 38.5032 31.8609L38.4951 31.9095C38.4718 31.9056 38.4545 31.8856 38.454 31.8619L38.4321 30.7463C38.4318 30.7284 38.4411 30.7118 38.4566 30.7028ZM38.5516 31.8184C38.5583 31.8193 38.5657 31.8203 38.5738 31.8214C38.6128 31.8264 38.6664 31.8324 38.7253 31.8365C38.7843 31.8405 38.8479 31.8424 38.9068 31.8395C38.9665 31.8365 39.018 31.8286 39.0547 31.8149C39.0604 31.8127 39.0684 31.807 39.0756 31.7897C39.083 31.7718 39.0878 31.745 39.0874 31.7088C39.0864 31.6367 39.0646 31.5385 39.0184 31.4289C38.9347 31.2303 38.7745 31.0029 38.5324 30.8363L38.5516 31.8184Z"
          fill="white"/>
    <path id="Vector_17" fill-rule="evenodd" clip-rule="evenodd"
          d="M41.2812 30.8875C41.2812 30.8875 40.5703 29.1594 38.7437 28.7219C36.9172 28.2844 37.1578 26.3375 37.3 26.2172C37.3875 26.0531 37.4422 25.7906 37.9672 26.0422C38.4922 26.2938 40.9203 27.5078 41.2703 27.5735C41.6203 27.6391 41.314 30.9313 41.2922 30.8875H41.2812Z"
          fill="#9CA69C"/>
    <path id="Vector (Stroke)_11" fill-rule="evenodd" clip-rule="evenodd"
          d="M37.3754 26.1887C37.3667 26.2066 37.3576 26.2254 37.3482 26.2429L37.3433 26.2522L37.3353 26.2589C37.3356 26.2587 37.3355 26.2588 37.3352 26.2592C37.3341 26.2607 37.3295 26.2669 37.3228 26.2822C37.3153 26.2996 37.3071 26.3239 37.2993 26.3548C37.2836 26.4166 37.2701 26.5009 37.2633 26.6015C37.2496 26.8026 37.263 27.0647 37.3364 27.3363C37.4825 27.8771 37.8661 28.4554 38.7565 28.6687C39.6846 28.891 40.3284 29.4411 40.7394 29.9337C40.945 30.1801 41.0928 30.4127 41.1893 30.5838C41.2177 30.6343 41.2418 30.6795 41.2615 30.7182C41.2705 30.6353 41.2813 30.524 41.2927 30.3926C41.319 30.0897 41.3483 29.6811 41.3661 29.2691C41.3838 28.8568 41.3898 28.4428 41.3699 28.1286C41.3599 27.971 41.3434 27.8414 41.3197 27.7503C41.3078 27.7045 41.2948 27.6717 41.2818 27.6505C41.2755 27.6401 41.27 27.634 41.266 27.6307C41.2623 27.6276 41.2604 27.6272 41.2602 27.6272C41.2106 27.6179 41.1297 27.5897 41.0293 27.55C40.9273 27.5096 40.8009 27.4554 40.6581 27.3918C40.3723 27.2645 40.0191 27.0985 39.6607 26.9269C39.3023 26.7552 38.9385 26.5777 38.6315 26.4275C38.5549 26.3899 38.4818 26.3541 38.4132 26.3206C38.2071 26.2195 38.0418 26.1386 37.9435 26.0915C37.6849 25.9676 37.5631 25.981 37.4979 26.0206C37.4637 26.0413 37.4379 26.073 37.4145 26.1129C37.4028 26.1328 37.3922 26.154 37.3814 26.1762C37.3794 26.1803 37.3774 26.1845 37.3754 26.1887ZM41.2307 30.9083L41.2306 30.9081L41.2303 30.9074L41.2288 30.904C41.2275 30.9009 41.2255 30.8963 41.2228 30.8901C41.2174 30.8778 41.209 30.8595 41.1978 30.836C41.1753 30.7889 41.1409 30.7208 41.094 30.6375C41.0001 30.4709 40.8559 30.2441 40.6555 30.0038C40.2543 29.523 39.6294 28.9902 38.731 28.7751C37.7948 28.5508 37.3854 27.9369 37.2308 27.3648C37.1538 27.08 37.1398 26.8055 37.1542 26.5941C37.1613 26.4884 37.1757 26.3974 37.1933 26.328C37.202 26.2933 37.2119 26.263 37.2226 26.2385C37.2307 26.2197 37.2413 26.1997 37.2555 26.1842C37.2624 26.1709 37.2692 26.157 37.2765 26.1419C37.2786 26.1375 37.2808 26.1329 37.2831 26.1283C37.2941 26.1057 37.3062 26.0814 37.3201 26.0576C37.348 26.01 37.3851 25.961 37.4412 25.9271C37.5564 25.8572 37.7245 25.8652 37.9908 25.9929C38.0896 26.0402 38.2555 26.1215 38.4619 26.2226C38.5303 26.2561 38.6032 26.2918 38.6796 26.3292C38.9865 26.4794 39.35 26.6567 39.708 26.8282C40.066 26.9997 40.4182 27.1652 40.7026 27.2919C40.8448 27.3553 40.9697 27.4087 41.0695 27.4483C41.171 27.4884 41.2425 27.5126 41.2804 27.5197C41.3242 27.5279 41.3545 27.5598 41.3751 27.5934C41.3961 27.6277 41.4124 27.6722 41.4255 27.7227C41.452 27.824 41.4689 27.962 41.479 28.1216C41.4994 28.4418 41.4931 28.8604 41.4753 29.2738C41.4575 29.6877 41.4281 30.0979 41.4017 30.4021C41.3885 30.5541 41.3761 30.6799 41.3662 30.7665C41.3613 30.8097 41.357 30.8437 41.3534 30.8666C41.3517 30.8776 41.35 30.8876 41.3482 30.895L41.3481 30.8952C41.3475 30.8977 41.3457 30.9051 41.342 30.9123C41.3408 30.9145 41.3385 30.9186 41.3348 30.923C41.3316 30.9267 41.3232 30.9358 41.3086 30.9402C41.3008 30.9426 41.293 30.9431 41.2857 30.9422H41.2446L41.2307 30.9083Z"
          fill="black"/>
    <path id="Vector_18" fill-rule="evenodd" clip-rule="evenodd"
          d="M39.5532 28.7109C39.5204 28.7328 41.9922 30.1766 41.2485 31.4125C41.9485 30.9422 41.7297 30.1328 41.7297 30.1328C41.7297 30.1328 42.2985 31.6312 40.8985 32.3641C41.0516 32.4953 41.15 32.4734 41.15 32.4734L40.9094 32.7031C40.9094 32.7031 40.8001 32.8891 41.7407 32.4297C41.4891 32.6375 41.4672 32.7906 41.4672 32.7906C41.4672 32.7906 41.5329 32.9875 42.1454 32.4516C41.6532 32.9875 41.5438 33.2609 41.5438 33.25C42.8891 33.1406 45.8094 28.7656 40.625 27.4859L40.8547 27.7266L39.5422 28.7109H39.5532Z"
          fill="#DE3108"/>
    <path id="Vector (Stroke)_12" fill-rule="evenodd" clip-rule="evenodd"
          d="M40.5824 27.4612C40.5933 27.4423 40.6155 27.4329 40.6367 27.4381C41.9396 27.7597 42.7412 28.2777 43.1845 28.8819C43.6285 29.487 43.7084 30.172 43.5812 30.8164C43.4542 31.4598 43.1206 32.0644 42.7341 32.5152C42.5408 32.7407 42.3333 32.9288 42.1305 33.0643C41.9304 33.198 41.7316 33.2827 41.5533 33.2986C41.5441 33.3004 41.5316 33.3003 41.5188 33.2927C41.5022 33.2829 41.4974 33.2675 41.4962 33.2628C41.4946 33.2569 41.4945 33.252 41.4945 33.25C41.4945 33.2387 41.4983 33.2283 41.5047 33.22L41.5058 33.2178C41.5097 33.2105 41.5162 33.1981 41.5254 33.1814C41.5439 33.1479 41.5737 33.0968 41.6189 33.0286C41.6641 32.9605 41.7246 32.8755 41.8048 32.7737C41.7095 32.8322 41.6389 32.8603 41.5858 32.8704C41.5303 32.881 41.4894 32.873 41.4604 32.8544C41.4464 32.8454 41.4369 32.835 41.4306 32.826C41.4276 32.8215 41.4253 32.8174 41.4237 32.814C41.4229 32.8123 41.4222 32.8108 41.4217 32.8095L41.421 32.8077L41.4207 32.8069L41.4206 32.8065L41.4205 32.8063C41.4205 32.8063 41.4204 32.8062 41.4671 32.7906C41.4184 32.7837 41.4184 32.7836 41.4184 32.7836L41.4184 32.7835L41.4185 32.7834L41.4185 32.783L41.4187 32.7821L41.4191 32.7797C41.4194 32.7778 41.42 32.7753 41.4207 32.7723C41.4221 32.7662 41.4244 32.7579 41.4279 32.7476C41.4349 32.727 41.4468 32.6985 41.4668 32.6636C41.4794 32.6417 41.495 32.6175 41.5146 32.5912C41.4001 32.6436 41.3071 32.6829 41.2316 32.7121C41.1086 32.7597 41.0295 32.7813 40.9781 32.7875C40.9527 32.7906 40.9301 32.7904 40.9111 32.7851C40.8907 32.7794 40.8714 32.7667 40.8618 32.7446C40.8532 32.7248 40.8564 32.7065 40.859 32.6971C40.8604 32.6919 40.8622 32.6877 40.8636 32.6846C40.8643 32.6831 40.8649 32.6817 40.8655 32.6807L40.8663 32.6792L40.8666 32.6786L40.8668 32.6784L40.8668 32.6783C40.8669 32.6782 40.8669 32.6782 40.9093 32.7031L40.8669 32.6782C40.8692 32.6742 40.8721 32.6707 40.8753 32.6675L41.0427 32.5078C40.9945 32.4914 40.9347 32.46 40.8664 32.4014C40.854 32.3908 40.8476 32.3747 40.8495 32.3585C40.8513 32.3423 40.8611 32.328 40.8756 32.3204C41.5575 31.9635 41.758 31.423 41.7899 30.9702C41.7972 30.8667 41.7956 30.7678 41.7889 30.6767C41.7418 30.933 41.6079 31.2303 41.2758 31.4533C41.2567 31.4662 41.2312 31.4641 41.2145 31.4482C41.1978 31.4323 41.1943 31.4069 41.2062 31.3871C41.3822 31.0946 41.3694 30.7896 41.2471 30.4907C41.1241 30.19 40.8911 29.8985 40.6326 29.6413C40.3747 29.3847 40.0942 29.1652 39.8796 29.0082C39.7833 28.9377 39.7005 28.8799 39.6389 28.837C39.632 28.8321 39.6253 28.8274 39.6188 28.823C39.5875 28.8011 39.5623 28.7834 39.5454 28.7707C39.5398 28.7665 39.5345 28.7625 39.5299 28.7586C39.514 28.7545 39.5008 28.7426 39.4954 28.7265C39.4887 28.7064 39.4957 28.6843 39.5126 28.6716L40.7808 27.7204L40.5894 27.5199C40.5742 27.5041 40.5714 27.4802 40.5824 27.4612ZM39.6273 28.7086C39.6404 28.7179 39.6564 28.7291 39.6752 28.7422C39.6816 28.7467 39.6883 28.7514 39.6953 28.7562C39.7568 28.7992 39.8405 28.8576 39.9378 28.9288C40.1543 29.0872 40.4391 29.31 40.702 29.5715C40.9645 29.8326 41.208 30.1351 41.3382 30.4534C41.443 30.7094 41.475 30.9775 41.3833 31.2411C41.5954 31.0367 41.6769 30.7952 41.7027 30.5901C41.7185 30.4644 41.7132 30.3526 41.704 30.2722C41.6994 30.2321 41.6938 30.2 41.6894 30.1782C41.6872 30.1672 41.6853 30.1589 41.684 30.1534C41.6834 30.1506 41.6829 30.1486 41.6825 30.1473L41.6822 30.1459L41.6821 30.1456L41.6821 30.1456L41.6821 30.1456C41.6753 30.1203 41.6895 30.0941 41.7145 30.086C41.7394 30.0779 41.7663 30.0908 41.7757 30.1153L41.7296 30.1328C41.7757 30.1153 41.7757 30.1154 41.7757 30.1154L41.7757 30.1155L41.7758 30.1158L41.7762 30.1168L41.7775 30.1204C41.7786 30.1235 41.7802 30.128 41.7822 30.1338C41.7863 30.1455 41.7919 30.1626 41.7985 30.1844C41.8116 30.228 41.8288 30.2908 41.8448 30.3684C41.8769 30.5234 41.9049 30.7383 41.8881 30.9771C41.8554 31.4413 41.6529 31.9951 40.9886 32.371C41.0327 32.4003 41.0683 32.4139 41.0935 32.4202C41.1114 32.4247 41.1245 32.4256 41.1322 32.4256C41.1361 32.4256 41.1386 32.4253 41.1398 32.4252C41.1401 32.4252 41.1403 32.4252 41.1404 32.4251C41.1616 32.421 41.1832 32.4311 41.1934 32.4502C41.2038 32.4697 41.1999 32.4938 41.1839 32.509L41.001 32.6837C41.0427 32.6745 41.1049 32.6556 41.1961 32.6203C41.3164 32.5738 41.4845 32.5 41.719 32.3855C41.7414 32.3745 41.7684 32.3821 41.782 32.403C41.7955 32.424 41.7912 32.4517 41.7719 32.4676C41.6502 32.5681 41.5859 32.6539 41.5522 32.7126C41.5369 32.7393 41.5278 32.7604 41.5226 32.775C41.5306 32.777 41.5446 32.778 41.5673 32.7737C41.6463 32.7586 41.8072 32.6819 42.1129 32.4145C42.1325 32.3973 42.1622 32.3985 42.1805 32.4172C42.1987 32.4359 42.1992 32.4656 42.1815 32.4848C41.937 32.7511 41.7883 32.9514 41.7009 33.0831C41.6738 33.124 41.6526 33.1583 41.6362 33.186C41.7701 33.156 41.9197 33.0867 42.0758 32.9825C42.2699 32.8528 42.4708 32.6711 42.6594 32.4511C43.0368 32.0109 43.3615 31.4213 43.4847 30.7973C43.6077 30.1743 43.5297 29.5187 43.1052 28.9402C42.6986 28.3861 41.9699 27.8966 40.7795 27.5766L40.8902 27.6926C40.9 27.7027 40.9049 27.7166 40.9037 27.7306C40.9025 27.7446 40.8954 27.7575 40.8842 27.7659L39.6273 28.7086ZM41.4671 32.7906L41.4184 32.7837C41.4173 32.7912 41.418 32.7989 41.4204 32.8062L41.4671 32.7906Z"
          fill="black"/>
    <path id="Vector_19" fill-rule="evenodd" clip-rule="evenodd"
          d="M39.6625 28.2844C39.9907 28.525 40.111 28.6125 40.1547 28.7219C39.8485 28.6562 39.575 28.6781 39.575 28.6781C39.575 28.6781 38.9079 28.0437 38.7875 27.9891C38.7 27.9891 38.175 27.6609 38.175 27.6609C37.9235 27.5297 37.6829 26.6437 38.6344 26.8953C38.9994 27.0857 39.3756 27.2537 39.761 27.3984L40.9313 27.7703L41.6094 28.525C41.6094 28.525 40.4063 27.9344 40.2532 27.9234C40.5813 28.1859 40.7672 28.5578 40.7672 28.5578C40.3844 28.4484 40.0563 28.3391 39.6625 28.2844Z"
          fill="white"/>
    <path id="Vector (Stroke)_13" fill-rule="evenodd" clip-rule="evenodd"
          d="M38.0518 27.4307C38.0929 27.5239 38.1492 27.592 38.1977 27.6173C38.1988 27.6179 38.1999 27.6185 38.201 27.6192L38.2068 27.6228L38.2235 27.6331C38.238 27.6421 38.2587 27.6548 38.2839 27.6701C38.3343 27.7008 38.4023 27.7416 38.473 27.7824C38.5438 27.8232 38.6166 27.8636 38.6768 27.8938C38.707 27.9088 38.7333 27.921 38.7541 27.9292C38.7645 27.9333 38.7729 27.9362 38.7793 27.9379C38.7852 27.9396 38.7877 27.9398 38.7877 27.9398C38.7877 27.9398 38.7876 27.9398 38.7874 27.9398C38.7945 27.9398 38.8014 27.9413 38.8078 27.9442C38.8285 27.9536 38.8561 27.9728 38.8856 27.9952C38.9163 28.0185 38.953 28.0484 38.993 28.0822C39.0732 28.1499 39.1684 28.2348 39.2594 28.3177C39.3506 28.4006 39.4379 28.4818 39.5025 28.5422C39.5347 28.5724 39.5613 28.5975 39.5798 28.615L39.5933 28.6277C39.6007 28.6273 39.61 28.6269 39.6208 28.6265C39.6521 28.6255 39.6968 28.6248 39.7512 28.6262C39.8328 28.6283 39.9367 28.6351 40.0499 28.6526C40.0323 28.6337 40.0105 28.6131 39.9831 28.5897C39.9094 28.5265 39.8014 28.4473 39.6404 28.3293L39.6333 28.3241L39.6624 28.2844L39.6692 28.2356C39.9967 28.2811 40.28 28.3642 40.5819 28.4527C40.6093 28.4607 40.6368 28.4688 40.6645 28.4769C40.6452 28.4453 40.6212 28.408 40.5927 28.3672C40.5068 28.2437 40.3814 28.0891 40.2223 27.9619C40.2055 27.9484 40.1994 27.9256 40.2072 27.9055C40.2151 27.8854 40.2351 27.8728 40.2566 27.8743C40.2837 27.8763 40.3256 27.8893 40.372 27.9061C40.4208 27.9238 40.4813 27.9481 40.5488 27.9767C40.6839 28.034 40.8493 28.1091 41.0094 28.1837C41.1538 28.2509 41.2942 28.3179 41.4049 28.3711L40.9035 27.8132L39.746 27.4453C39.7452 27.4451 39.7444 27.4448 39.7436 27.4445C39.3581 27.2997 38.9817 27.1317 38.6165 26.9415C38.3864 26.8814 38.238 26.8926 38.1464 26.935C38.0574 26.9762 38.0142 27.0509 38.0023 27.141C37.9901 27.2331 38.0114 27.339 38.0518 27.4307ZM41.6093 28.525C41.5876 28.5692 41.5876 28.5692 41.5876 28.5692L41.5741 28.5626C41.5653 28.5582 41.5523 28.5519 41.5358 28.5438C41.5026 28.5277 41.4551 28.5046 41.3976 28.4769C41.2825 28.4214 41.1275 28.3473 40.9678 28.2729C40.808 28.1985 40.6439 28.1239 40.5104 28.0674C40.4923 28.0597 40.4747 28.0523 40.4579 28.0454C40.5456 28.1373 40.6179 28.2309 40.6735 28.3109C40.7182 28.3751 40.7524 28.431 40.7755 28.4709C40.7871 28.4909 40.7959 28.5069 40.8019 28.5181C40.8049 28.5236 40.8071 28.528 40.8087 28.5309L40.8105 28.5344L40.8109 28.5354L40.8111 28.5356L40.8111 28.5358C40.8111 28.5358 40.8112 28.5358 40.7671 28.5578L40.8111 28.5358C40.8199 28.5532 40.8175 28.5742 40.805 28.5892C40.7925 28.6043 40.7724 28.6105 40.7536 28.6051C40.6847 28.5854 40.6177 28.5658 40.552 28.5466C40.3157 28.4773 40.0954 28.4127 39.8573 28.3667C39.9364 28.4255 39.9987 28.4734 40.0472 28.515C40.1258 28.5823 40.174 28.6378 40.2003 28.7036C40.2071 28.7205 40.204 28.7397 40.1923 28.7536C40.1805 28.7675 40.1621 28.7738 40.1443 28.77C39.995 28.738 39.8533 28.7273 39.7487 28.7246C39.6965 28.7232 39.6537 28.7239 39.6241 28.7249C39.6093 28.7254 39.5978 28.726 39.5901 28.7264C39.5863 28.7267 39.5834 28.7269 39.5815 28.727L39.5794 28.7271L39.5789 28.7272C39.5789 28.7272 39.5789 28.7272 39.5789 28.7272M39.5749 28.6781L39.541 28.7138L39.5336 28.7067L39.5122 28.6865C39.4938 28.6691 39.4673 28.6442 39.4352 28.6141C39.3708 28.5538 39.2839 28.473 39.1932 28.3905C39.1024 28.3079 39.0083 28.224 38.9295 28.1574C38.8901 28.1241 38.8549 28.0954 38.8261 28.0736C38.8017 28.0551 38.7843 28.0433 38.7735 28.0372C38.7783 28.0379 38.783 28.0383 38.7874 28.0383V27.989L38.7671 28.0339C38.7689 28.0347 38.771 28.0358 38.7735 28.0372C38.7554 28.0346 38.7355 28.0277 38.7179 28.0207C38.6933 28.011 38.6642 27.9975 38.6328 27.9818C38.57 27.9504 38.4952 27.9088 38.4238 27.8676C38.3523 27.8264 38.2836 27.7851 38.2328 27.7542C38.2074 27.7388 38.1864 27.7259 38.1718 27.7169L38.1549 27.7064L38.1504 27.7036C38.0739 27.6629 38.0064 27.5716 37.9618 27.4704C37.9161 27.3669 37.8895 27.2425 37.9047 27.1281C37.9201 27.0118 37.9794 26.9039 38.105 26.8457C38.2274 26.789 38.4041 26.7835 38.6469 26.8477C38.6504 26.8486 38.6538 26.85 38.6571 26.8517C39.0199 27.0409 39.3939 27.2079 39.777 27.3519L40.9461 27.7234C40.9544 27.726 40.9619 27.7309 40.9678 27.7374L41.6459 28.4921C41.6617 28.5096 41.6628 28.5359 41.6486 28.5547C41.6343 28.5735 41.6088 28.5796 41.5876 28.5692L41.6093 28.525M39.5789 28.7272C39.5789 28.7272 39.5789 28.7272 39.5789 28.7272C39.565 28.7283 39.5512 28.7234 39.541 28.7138L39.5749 28.6781"
          fill="black"/>
    <path id="Vector (Stroke)_14" fill-rule="evenodd" clip-rule="evenodd"
          d="M34.9932 23.0056C34.9668 23.0121 34.9401 22.996 34.9336 22.9696C34.927 22.9433 34.9431 22.9166 34.9695 22.91L34.9814 22.9578C34.9695 22.91 34.9695 22.91 34.9695 22.91L34.9826 22.9068C34.991 22.9047 35.0035 22.9017 35.0194 22.8978C35.0511 22.8901 35.0966 22.8792 35.1517 22.8662C35.2618 22.8401 35.4101 22.8059 35.563 22.773C35.7157 22.7401 35.8736 22.7084 36.0025 22.6877C36.0669 22.6774 36.1249 22.6696 36.1718 22.6659C36.1952 22.664 36.2166 22.6631 36.235 22.6635C36.2526 22.6638 36.2709 22.6654 36.2865 22.6701C36.3124 22.6781 36.327 22.7057 36.319 22.7317C36.311 22.7576 36.2835 22.7722 36.2575 22.7642C36.2553 22.7635 36.2479 22.7622 36.2331 22.7619C36.2191 22.7616 36.2012 22.7623 36.1796 22.764C36.1365 22.7675 36.0814 22.7748 36.0181 22.7849C35.8918 22.8052 35.7359 22.8365 35.5837 22.8692C35.4317 22.9019 35.284 22.936 35.1743 22.962C35.1195 22.9749 35.0742 22.9858 35.0426 22.9935C35.0268 22.9973 35.0144 23.0004 35.006 23.0024L34.9932 23.0056Z"
          fill="white"/>
    <path id="Vector_20" fill-rule="evenodd" clip-rule="evenodd" d="M-4 46.6703H80V56H-4V46.6703Z" fill="#DE3908"/>
  </g>
</svg>
